<svg id="Layer_1" data-name="Layer 1" xmlns="http://www.w3.org/2000/svg" xmlns:xlink="http://www.w3.org/1999/xlink"
     viewBox="0 0 4000 2422.88">
    <defs>
        <style>
            .cls-1{fill:#ac7449;}.cls-12,.cls-2{fill:#c59969;}.cls-3{fill:#af7047;}.cls-4{fill:#c5996c;}.cls-5{fill:#744d22;}.cls-6{fill:#ad6c45;}.cls-10,.cls-7,.cls-8,.cls-9{fill:#fff;}.cls-8{stroke:#744d22;}.cls-10,.cls-17,.cls-22,.cls-23,.cls-42,.cls-43,.cls-58,.cls-59,.cls-8,.cls-9{stroke-miterlimit:10;}.cls-10,.cls-17,.cls-42,.cls-43,.cls-58,.cls-59,.cls-8,.cls-9{stroke-width:4px;}.cls-9{stroke:#ad6c45;}.cls-10{stroke:#af7047;}.cls-11{fill:#fed09a;}.cls-12{fill-rule:evenodd;}.cls-13{fill:#e6e6e6;}.cls-14{fill:#ccc;}.cls-15{fill:#f2f2f2;}.cls-16{fill:#a8a9ad;}.cls-17,.cls-23,.cls-42,.cls-43,.cls-58,.cls-59{fill:none;}.cls-17,.cls-22,.cls-23,.cls-58,.cls-59{stroke:#fff;}.cls-17{stroke-dasharray:24;}.cls-18{fill:#a2c094;}.cls-19{fill:#9ab447;}.cls-20{fill:#996a59;}.cls-21,.cls-22{fill:#379761;}.cls-22,.cls-23{stroke-width:2px;}.cls-24{fill:url(#linear-gradient);}.cls-25{fill:url(#linear-gradient-2);}.cls-26{fill:url(#linear-gradient-3);}.cls-27{fill:url(#linear-gradient-4);}.cls-28{fill:#6a5133;}.cls-29{fill:#006836;}.cls-30{fill:#2e9960;}.cls-31{fill:#8abc92;}.cls-32{fill:url(#linear-gradient-5);}.cls-33{fill:url(#linear-gradient-6);}.cls-34{fill:url(#linear-gradient-7);}.cls-35{fill:url(#linear-gradient-8);}.cls-36{fill:url(#linear-gradient-9);}.cls-37{fill:#0fbcbe;}.cls-38{fill:#4b7784;}.cls-39{fill:url(#linear-gradient-10);}.cls-40{fill:url(#linear-gradient-11);}.cls-41{fill:url(#linear-gradient-12);}.cls-42{stroke:#b3b3b3;}.cls-43{stroke:#e6e6e6;}.cls-44{fill:url(#linear-gradient-13);}.cls-45{fill:url(#linear-gradient-14);}.cls-46{fill:url(#linear-gradient-15);}.cls-47{fill:url(#linear-gradient-16);}.cls-48{fill:url(#linear-gradient-17);}.cls-49{fill:url(#linear-gradient-18);}.cls-50{fill:url(#linear-gradient-19);}.cls-51{fill:url(#linear-gradient-20);}.cls-52{fill:url(#linear-gradient-21);}.cls-53{fill:url(#linear-gradient-22);}.cls-54{fill:url(#linear-gradient-23);}.cls-55{fill:url(#linear-gradient-24);}.cls-56{fill:url(#linear-gradient-25);}.cls-57{fill:url(#linear-gradient-26);}.cls-58{stroke-dasharray:24.42
            24.42;}.cls-60{fill:url(#linear-gradient-27);}.cls-61{fill:url(#linear-gradient-28);}
        </style>
        <linearGradient id="linear-gradient" x1="1082.41" y1="1395.48" x2="1221.43" y2="1256.46"
                        gradientUnits="userSpaceOnUse">
            <stop offset="0" stop-color="gray" stop-opacity="0"/>
            <stop offset="1" stop-color="#333"/>
        </linearGradient>
        <linearGradient id="linear-gradient-2" x1="1592.75" y1="1343.61" x2="1731.64" y2="1204.71"
                        xlink:href="#linear-gradient"/>
        <linearGradient id="linear-gradient-3" x1="1746.12" y1="660.07" x2="1785.1" y2="621.1"
                        xlink:href="#linear-gradient"/>
        <linearGradient id="linear-gradient-4" x1="1592.04" y1="1319.57" x2="1642.29" y2="1319.57"
                        gradientUnits="userSpaceOnUse">
            <stop offset="0" stop-color="gray" stop-opacity="0"/>
            <stop offset="1" stop-color="gray"/>
        </linearGradient>
        <linearGradient id="linear-gradient-5" x1="1683" y1="1309.5" x2="1767" y2="1309.5"
                        xlink:href="#linear-gradient-4"/>
        <linearGradient id="linear-gradient-6" x1="1591.96" y1="1531.34" x2="1642.21" y2="1531.34"
                        xlink:href="#linear-gradient-4"/>
        <linearGradient id="linear-gradient-7" x1="913.94" y1="1458.19" x2="997.94" y2="1458.19"
                        xlink:href="#linear-gradient-4"/>
        <linearGradient id="linear-gradient-8" x1="1001.26" y1="1078.99" x2="1085.26" y2="1078.99"
                        xlink:href="#linear-gradient-4"/>
        <linearGradient id="linear-gradient-9" x1="632.26" y1="1697.72" x2="682.51" y2="1697.72"
                        xlink:href="#linear-gradient-4"/>
        <linearGradient id="linear-gradient-10" x1="2386.01" y1="780.92" x2="2470.01" y2="780.92"
                        xlink:href="#linear-gradient-4"/>
        <linearGradient id="linear-gradient-11" x1="2613.67" y1="938.83" x2="2663.91" y2="938.83"
                        xlink:href="#linear-gradient-4"/>
        <linearGradient id="linear-gradient-12" x1="1819.99" y1="1901.72" x2="1859.87" y2="1861.84"
                        xlink:href="#linear-gradient"/>
        <linearGradient id="linear-gradient-13" x1="2297.41" y1="1813.49" x2="2406.43" y2="1704.48"
                        xlink:href="#linear-gradient"/>
        <linearGradient id="linear-gradient-14" x1="2558.88" y1="1809.61" x2="2625.05" y2="1743.44"
                        xlink:href="#linear-gradient"/>
        <linearGradient id="linear-gradient-15" x1="2702.15" y1="1854.22" x2="2752.39" y2="1854.22"
                        xlink:href="#linear-gradient-4"/>
        <linearGradient id="linear-gradient-16" x1="2714.32" y1="1470.05" x2="2798.32" y2="1470.05"
                        xlink:href="#linear-gradient-4"/>
        <linearGradient id="linear-gradient-17" x1="2597.36" y1="843.6" x2="2706.38" y2="734.58"
                        xlink:href="#linear-gradient"/>
        <linearGradient id="linear-gradient-18" x1="260.58" y1="1561.5" x2="333.33" y2="1488.74"
                        xlink:href="#linear-gradient"/>
        <linearGradient id="linear-gradient-19" x1="440.66" y1="1596.06" x2="513.25" y2="1523.46"
                        xlink:href="#linear-gradient"/>
        <linearGradient id="linear-gradient-20" x1="590.58" y1="1197.77" x2="663.26" y2="1125.09"
                        xlink:href="#linear-gradient"/>
        <linearGradient id="linear-gradient-21" x1="1019.2" y1="768.71" x2="1134.56" y2="653.35"
                        xlink:href="#linear-gradient"/>
        <linearGradient id="linear-gradient-22" x1="3266.06" y1="1592.35" x2="3417.76" y2="1440.65"
                        xlink:href="#linear-gradient"/>
        <linearGradient id="linear-gradient-23" x1="3026.07" y1="1730.91" x2="3177.77" y2="1579.21"
                        xlink:href="#linear-gradient"/>
        <linearGradient id="linear-gradient-24" x1="1949.2" y1="543.69" x2="2064.67" y2="428.23"
                        xlink:href="#linear-gradient"/>
        <linearGradient id="linear-gradient-25" x1="3315.92" y1="1073.25" x2="3399.92" y2="1073.25"
                        xlink:href="#linear-gradient-4"/>
        <linearGradient id="linear-gradient-26" x1="3151.67" y1="1177.51" x2="3201.92" y2="1177.51"
                        xlink:href="#linear-gradient-4"/>
        <linearGradient id="linear-gradient-27" x1="2213.85" y1="577.27" x2="2310.08" y2="481.03"
                        xlink:href="#linear-gradient"/>
        <linearGradient id="linear-gradient-28" x1="3488.71" y1="1133.94" x2="3555.31" y2="1067.34"
                        xlink:href="#linear-gradient"/>
    </defs>
    <g id="Walls">
        <polygon class="cls-1" points="1106.92 953.58 1106.92 1196.07 1316.92 1317.31 1316.92 1074.83 1106.92 953.58"/>
        <polygon class="cls-2" points="1316.92 1317.31 1616.92 1144.11 1616.92 901.62 1316.92 1074.83 1316.92 1317.31"/>
        <polygon class="cls-3" points="1616.92 1144.11 1826.92 1265.35 1826.92 1022.86 1616.92 901.62 1616.92 1144.11"/>
        <polygon class="cls-4" points="1826.92 1265.35 2036.92 1144.11 2036.92 901.62 1826.92 1022.86 1826.92 1265.35"/>
        <polygon class="cls-2" points="2126.92 607.17 2126.92 849.66 2036.92 901.62 1826.92 780.38 2126.92 607.17"/>
    </g>
    <g id="Floor">
        <polygon class="cls-5"
                 points="1616.92 1144.11 1616.92 1178.75 1826.92 1299.99 1826.92 1265.35 1616.92 1144.11"/>
        <polygon class="cls-6"
                 points="1316.92 1351.95 1616.92 1178.75 1616.92 1144.11 1316.92 1317.31 1316.92 1351.95"/>
        <polygon class="cls-6"
                 points="1826.92 1299.99 2036.92 1178.75 2036.92 1144.11 1826.92 1265.35 1826.92 1299.99"/>
        <polygon class="cls-6" points="2126.92 849.66 2126.92 884.3 2036.92 936.26 2036.92 901.62 2126.92 849.66"/>
        <polygon class="cls-5"
                 points="1106.92 1196.07 1106.92 1230.71 1316.92 1351.95 1316.92 1317.31 1106.92 1196.07"/>
    </g>
    <g id="Window">
        <polygon class="cls-7" points="1136.92 1074.47 1136.92 1109.11 1287 1196 1287 1161.12 1136.92 1074.47"/>
        <polyline class="cls-8" points="1287 1196 1136.92 1109.11 1136.92 1074.47"/>
    </g>
    <g id="Window-2" data-name="Window">
        <polygon class="cls-7" points="1136.92 1144.47 1136.92 1179.11 1287 1266 1287 1231.12 1136.92 1144.47"/>
        <polyline class="cls-8" points="1287 1266 1136.92 1179.11 1136.92 1144.47"/>
    </g>
    <g id="Window-3" data-name="Window">
        <polygon class="cls-7" points="1136.52 1005.28 1136.52 1039.92 1286.6 1126.82 1286.6 1091.93 1136.52 1005.28"/>
        <polyline class="cls-8" points="1286.6 1126.82 1136.52 1039.92 1136.52 1005.28"/>
    </g>
    <g id="WindowPanel">
        <polygon class="cls-9" points="1347 1092 1347 1126.83 1407 1092 1407 1057.46 1347 1092"/>
        <polygon class="cls-9" points="1529 988 1529 1022.83 1589 988 1589 953.46 1529 988"/>
        <polygon class="cls-9" points="1437 1040 1437 1074.83 1497 1040 1497 1005.46 1437 1040"/>
        <polygon class="cls-9" points="1351 1161 1351 1195.83 1411 1161 1411 1126.46 1351 1161"/>
        <polygon class="cls-9" points="1533 1057 1533 1091.83 1593 1057 1593 1022.46 1533 1057"/>
        <polygon class="cls-9" points="1441 1109 1441 1143.83 1501 1109 1501 1074.46 1441 1109"/>
        <polygon class="cls-9" points="1350 1230.61 1350 1265.44 1410 1230.61 1410 1196.07 1350 1230.61"/>
        <polygon class="cls-9" points="1532 1126.61 1532 1161.44 1592 1126.61 1592 1092.07 1532 1126.61"/>
        <polygon class="cls-9" points="1440 1178.61 1440 1213.44 1500 1178.61 1500 1144.07 1440 1178.61"/>
    </g>
    <g id="WindowPanel-2" data-name="WindowPanel">
        <polygon class="cls-10" points="1854 797.26 1854 832.09 1914 797.26 1914 762.72 1854 797.26"/>
        <polygon class="cls-10" points="2036 693.26 2036 728.09 2096 693.26 2096 658.72 2036 693.26"/>
        <polygon class="cls-10" points="1944 745.26 1944 780.09 2004 745.26 2004 710.72 1944 745.26"/>
        <polygon class="cls-10" points="1858 866.26 1858 901.09 1918 866.26 1918 831.72 1858 866.26"/>
        <polygon class="cls-10" points="2040 762.26 2040 797.09 2100 762.26 2100 727.72 2040 762.26"/>
        <polygon class="cls-10" points="1948 814.26 1948 849.09 2008 814.26 2008 779.72 1948 814.26"/>
        <polygon class="cls-10" points="1857 935.87 1857 970.7 1917 935.87 1917 901.32 1857 935.87"/>
        <polygon class="cls-10" points="2039 831.87 2039 866.7 2099 831.87 2099 797.32 2039 831.87"/>
        <polygon class="cls-10" points="1947 883.87 1947 918.7 2007 883.87 2007 849.32 1947 883.87"/>
    </g>
    <g id="Roof">
        <polygon class="cls-11"
                 points="1136.92 970.9 1316.92 1074.83 1616.92 901.62 1826.92 1022.86 2036.92 901.62 1826.92 780.38 2126.92 607.17 1916.92 485.93 1616.92 659.13 1106.92 953.58 1136.92 970.9"/>
    </g>
    <polygon class="cls-9" points="1857 1248 1857 1179 2007 1092 2007 1161 1857 1248"/>
    <g id="FrontWindows">
        <polygon class="cls-9" points="1857 1039.61 1857 1074.45 1917 1039.61 1917 1005.07 1857 1039.61"/>
        <polygon class="cls-9" points="1947 987.61 1947 1022.45 2007 987.61 2007 953.07 1947 987.61"/>
        <polygon class="cls-9" points="1859 1108.61 1859 1143.45 1919 1108.61 1919 1074.07 1859 1108.61"/>
        <polygon class="cls-9" points="1949 1056.61 1949 1091.45 2009 1056.61 2009 1022.07 1949 1056.61"/>
    </g>
    <g id="FrontWindows-2" data-name="FrontWindows">
        <polygon class="cls-7" points="1796 1039.31 1796 1074.14 1736 1039.31 1736 1004.77 1796 1039.31"/>
        <polygon class="cls-7" points="1706 987.31 1706 1022.14 1646 987.31 1646 952.77 1706 987.31"/>
        <polygon class="cls-7" points="1796 1109.31 1796 1144.14 1736 1109.31 1736 1074.77 1796 1109.31"/>
        <polygon class="cls-7" points="1706 1057.31 1706 1092.14 1646 1057.31 1646 1022.77 1706 1057.31"/>
        <polygon class="cls-7" points="1797 1178.81 1797 1213.64 1737 1178.81 1737 1144.26 1797 1178.81"/>
        <polygon class="cls-7" points="1707 1126.81 1707 1161.64 1647 1126.81 1647 1092.26 1707 1126.81"/>
        <polyline class="cls-8" points="1706 1022 1646 987.64 1646 953"/>
        <polyline class="cls-8" points="1707 1092 1647 1057.64 1647 1023"/>
        <polyline class="cls-8" points="1707 1161 1647 1126.64 1647 1092"/>
        <polyline class="cls-8" points="1797 1213 1737 1178.64 1737 1144"/>
        <polyline class="cls-8" points="1797 1144 1737 1109.64 1737 1075"/>
        <polyline class="cls-8" points="1797 1074 1737 1039.64 1737 1005"/>
    </g>
    <path class="cls-2"
          d="M1303.84,944.18a14.38,14.38,0,0,1-8.32,2.09,22.87,22.87,0,0,1-9.34-3.35,19.94,19.94,0,0,1-5.27-3.95,2.89,2.89,0,0,1-.64-3.32q.86-1.64,4.07-3.48c1.67-1,4.07-2.25,7.22-3.87l-1.63-.94a22,22,0,0,0-5.09-2.33,6,6,0,0,0-3.47,0,22.21,22.21,0,0,0-4.39,2.08q-2.82,1.63-7,4.66l-5.55-3.2a48.19,48.19,0,0,1,8.54-6.13,26.69,26.69,0,0,1,8.33-3.38,15.07,15.07,0,0,1,7.32.44,41.34,41.34,0,0,1,8.81,4l20.6,11.9-6.56,3.79-4.37-2.22-.39.23Q1309.74,940.76,1303.84,944.18Zm-3.31-5.47a8,8,0,0,0,1.84-1.37,1.68,1.68,0,0,0,.46-1.47q-.32-1.25-4.55-3.69l-1.76-1-4.93,2.84a5.69,5.69,0,0,0-1.83,1.44,1.07,1.07,0,0,0,.25,1.28,12.1,12.1,0,0,0,2.54,1.78,10.05,10.05,0,0,0,4.11,1.54A8,8,0,0,0,1300.53,938.71Zm-9-26.45,6.5-3.75,5.93,3.12.46-.27q-2.54-2.6-1.93-4.45t3.74-3.74l7.5,4.33q-3,1.74-3.74,3.36c-.49,1.09-.21,2.23.83,3.44a23.47,23.47,0,0,0,5.73,4.22l15.32,8.84-7.08,4.09Zm76.46,9.31c-1.57.91-3.25,1.8-5,2.69s-3.23,1.54-4.46,2l-5.67-3.27c2.71-1.47,5.18-2.84,7.42-4.13s3.43-2.23,3.87-3,.25-1.57-.71-2.38a34.8,34.8,0,0,0-5.47-3.61l-2.15-1.25-.46.27q3,3.31-2.85,6.69a15,15,0,0,1-6.68,2.2,15.8,15.8,0,0,1-6.47-1.23,82.48,82.48,0,0,1-8.81-4.56l-19.3-11.14,7.09-4.09,18.06,10.43q4.5,2.6,6.46,3.5a6.71,6.71,0,0,0,3.26.67,10.09,10.09,0,0,0,3.22-1.33c1.39-.8,2.12-1.55,2.17-2.23s-.43-1.46-1.56-2.26a64.39,64.39,0,0,0-6-3.77l-17.15-9.9,7.09-4.09L1363,904.62a57.64,57.64,0,0,1,9.45,6.37c1.82,1.6,2.47,3.24,1.93,4.9S1371.71,919.45,1368,921.57ZM1389.65,894l-16.59-3.67-.46.26,6.23,9.66-7.29,4.2L1362.92,890l-24.43-4.79,7.61-4.39,15.87,3.4.4-.22-6-9.13,7.35-4.24,8.36,14.07,25.15,5Zm22.58-12.44a27.57,27.57,0,0,1-9.31,3.72,15.82,15.82,0,0,1-8-1,92.88,92.88,0,0,1-11.54-5.9,77.33,77.33,0,0,1-10.3-6.71q-2.67-2.37-1.61-4.56t6.44-5.38a28,28,0,0,1,9.3-3.72,14.94,14.94,0,0,1,7.85,1,87,87,0,0,1,11.67,5.91,69.89,69.89,0,0,1,10.17,6.7q2.73,2.34,1.74,4.57T1412.23,881.59Zm-6.06-3.5c1.57-.91,2.43-1.65,2.56-2.23s-.43-1.38-1.69-2.26-3.67-2.43-7.36-4.56-6.37-3.57-7.89-4.25a7.61,7.61,0,0,0-3.86-.94,9.27,9.27,0,0,0-3.93,1.44c-1.57.91-2.43,1.68-2.56,2.31s.4,1.32,1.62,2.23,3.69,2.36,7.43,4.52,6.3,3.56,7.83,4.29a9,9,0,0,0,3.92,1A10.45,10.45,0,0,0,1406.17,878.09Z"/>
    <path class="cls-12"
          d="M1226.69,988.12l-59.77-34.51,60.14-34.73,59.77,34.51-24.1,13.92-15.26-5.1-8.72,5,8.6,8.94-8.72,5-32.6-33.4,7.57-4.37L1262.12,959l9.41-5.43L1227.21,928l-44.53,25.71,51.81,29.92Zm5.48-26.26,5.74-3.32L1225.84,955Z"/>
    <g id="Elevator">
        <polygon class="cls-13" points="1900.09 597.03 1811.73 648.04 1811.73 546.66 1900.63 495.33 1900.09 597.03"/>
        <polygon class="cls-14" points="1811.73 648.04 1752.83 614.03 1752.83 512.01 1811.73 546.66 1811.73 648.04"/>
        <polygon class="cls-15" points="1752.83 512.01 1841.18 461 1900.63 495.33 1811.73 546.66 1752.83 512.01"/>
        <polygon class="cls-14" points="1789.68 510.38 1819.14 527.39 1819.14 510.38 1789.68 493.38 1789.68 510.38"/>
        <polygon class="cls-13" points="1819.14 527.39 1863.31 501.88 1863.31 484.88 1819.14 510.38 1819.14 527.39"/>
        <polygon class="cls-14" points="1844.66 629.1 1844.66 578.04 1874.11 561.14 1874.11 612.05 1844.66 629.1"/>
    </g>
    <g id="Road">
        <polygon class="cls-16" points="536.92 2183.34 4016.92 174.16 4016.92 589.85 896.92 2391.18 536.92 2183.34"/>
        <line class="cls-17" x1="716.92" y1="2287.26" x2="4016.92" y2="382"/>
    </g>
    <polygon class="cls-18" points="1826.91 1299.98 1946.91 1369.26 2156.92 1248.03 2036.92 1178.75 1826.91 1299.98"/>
    <polygon class="cls-18" points="1046.92 1819.61 1136.92 1767.64 1196.92 1802.29 1106.92 1854.25 1046.92 1819.61"/>
    <polygon class="cls-18" points="1376.92 1629.08 1466.92 1577.12 1526.92 1611.76 1436.92 1663.72 1376.92 1629.08"/>
    <polygon class="cls-19" points="1136.92 1767.64 1376.92 1629.08 1436.92 1663.72 1196.92 1802.29 1136.92 1767.64"/>
    <polygon class="cls-19"
             points="1496.92 1594.44 1586.92 1542.48 1526.92 1507.84 1556.92 1490.52 1526.92 1473.2 1496.92 1455.88 1466.92 1473.2 1436.92 1455.88 1406.92 1438.56 1466.92 1403.91 1436.92 1386.59 1406.92 1369.27 1376.92 1386.59 1346.92 1369.27 1316.92 1386.59 1286.92 1369.27 1256.92 1351.95 1286.92 1334.63 1226.92 1299.99 1166.92 1334.63 1136.92 1317.31 1106.92 1299.99 1016.92 1248.03 1046.92 1230.71 1106.92 1196.07 1106.92 1161.43 1106.92 1092.14 1046.92 1126.79 1016.92 1144.11 986.92 1126.79 956.92 1144.11 986.92 1161.43 956.92 1178.75 926.92 1196.07 956.92 1213.39 866.92 1265.35 806.92 1299.99 1136.92 1490.52 1256.92 1421.23 1286.92 1403.91 1496.92 1525.16 1527 1542.43 1466.92 1577.12 1496.92 1594.44"/>
    <polygon class="cls-19"
             points="1046.92 1438.56 1016.92 1455.88 1046.92 1473.2 926.92 1542.48 896.92 1525.16 836.92 1559.8 866.92 1577.12 836.92 1594.44 866.92 1611.76 686.92 1715.68 986.92 1888.89 1076.92 1836.93 1046.92 1819.61 986.92 1854.25 746.92 1715.68 1136.92 1490.52 1046.92 1438.56"/>
    <polygon class="cls-18" points="1046.92 1265.35 1106.92 1230.71 1226.88 1300.12 1166.92 1334.63 1046.92 1265.35"/>
    <g id="Ground">
        <polygon class="cls-20" points="746.92 1715.68 1286.92 1403.91 1527 1542.43 986.92 1854.25 746.92 1715.68"/>
        <polygon class="cls-21" points="1255.92 1455.63 1435 1559.03 1015.92 1802.04 835.92 1698.12 1255.92 1455.63"/>
        <polygon class="cls-22" points="883 1689 1243 1481 1393 1568 1033 1776 883 1689"/>
        <polygon class="cls-23"
                 points="1213.13 1671.92 1062.79 1585.12 1062.79 1515.87 1213.13 1602.64 1213.13 1671.92"/>
        <polygon class="cls-23"
                 points="1228.49 1541.24 1286.49 1507.24 1347.49 1541.97 1288.49 1576.24 1228.49 1541.24"/>
        <polygon class="cls-23" points="928 1714 986 1680 1047 1714.73 988 1749 928 1714"/>
    </g>
    <g id="Shadows">
        <polygon class="cls-24" points="1106.92 1230.71 986.92 1299.99 1316.92 1351.95 1106.92 1230.71"/>
        <polygon class="cls-25" points="1617.47 1179.05 1497.47 1248.33 1826.92 1299.99 1617.47 1179.05"/>
        <polygon class="cls-26" points="1752.83 614.03 1719.22 633.17 1812 648 1752.83 614.03"/>
    </g>
    <g id="SmallTree">
        <ellipse class="cls-27" cx="1617.17" cy="1319.57" rx="25.12" ry="9.27"/>
        <polygon class="cls-28"
                 points="1616.77 1292.47 1616.77 1320.32 1623.76 1317.52 1623.76 1281.39 1616.77 1278.6 1616.77 1292.47"/>
        <polygon class="cls-28" points="1617 1292.63 1617 1320.47 1610 1317.67 1610 1281.55 1617 1278.75 1617 1292.63"/>
        <polygon class="cls-29" points="1598.93 1206.08 1581.23 1278.75 1617 1299.4 1617.12 1216.58 1598.93 1206.08"/>
        <polygon class="cls-30" points="1635.06 1206.22 1617.12 1216.58 1617 1299.4 1653.01 1278.75 1635.06 1206.22"/>
        <polygon class="cls-31"
                 points="1617.12 1195.86 1598.93 1206.08 1617.12 1216.58 1635.06 1206.22 1617.12 1195.86"/>
    </g>
    <g id="BigTree">
        <ellipse class="cls-32" cx="1725" cy="1309.5" rx="42" ry="15.5"/>
        <polygon class="cls-28"
                 points="1724.34 1264.2 1724.34 1310.75 1736.03 1306.07 1736.03 1245.67 1724.34 1241 1724.34 1264.2"/>
        <polygon class="cls-28"
                 points="1724.72 1264.45 1724.72 1311 1713.03 1306.33 1713.03 1245.93 1724.72 1241.25 1724.72 1264.45"/>
        <polygon class="cls-29"
                 points="1694.52 1119.77 1664.92 1241.25 1724.72 1275.77 1724.92 1137.33 1694.52 1119.77"/>
        <polygon class="cls-30"
                 points="1754.92 1120.01 1724.92 1137.33 1724.72 1275.77 1784.92 1241.25 1754.92 1120.01"/>
        <polygon class="cls-31"
                 points="1724.92 1102.68 1694.52 1119.77 1724.92 1137.33 1754.92 1120.01 1724.92 1102.68"/>
    </g>
    <g id="SmallTree-2" data-name="SmallTree">
        <ellipse class="cls-33" cx="1617.09" cy="1531.34" rx="25.12" ry="9.27"/>
        <polygon class="cls-28"
                 points="1616.69 1504.24 1616.69 1532.08 1623.68 1529.29 1623.68 1493.16 1616.69 1490.37 1616.69 1504.24"/>
        <polygon class="cls-28"
                 points="1616.92 1504.39 1616.92 1532.24 1609.92 1529.44 1609.92 1493.31 1616.92 1490.52 1616.92 1504.39"/>
        <polygon class="cls-29"
                 points="1598.85 1417.85 1581.15 1490.51 1616.92 1511.16 1617.04 1428.35 1598.85 1417.85"/>
        <polygon class="cls-30"
                 points="1634.98 1417.99 1617.04 1428.35 1616.92 1511.16 1652.93 1490.51 1634.98 1417.99"/>
        <polygon class="cls-31"
                 points="1617.04 1407.63 1598.85 1417.85 1617.04 1428.35 1634.98 1417.99 1617.04 1407.63"/>
    </g>
    <g id="BigTree-2" data-name="BigTree">
        <ellipse class="cls-34" cx="955.94" cy="1458.19" rx="42" ry="15.5"/>
        <polygon class="cls-28"
                 points="955.28 1412.89 955.28 1459.44 966.97 1454.76 966.97 1394.37 955.28 1389.69 955.28 1412.89"/>
        <polygon class="cls-28"
                 points="955.66 1413.14 955.66 1459.69 943.97 1455.02 943.97 1394.62 955.66 1389.95 955.66 1413.14"/>
        <polygon class="cls-29" points="925.46 1268.46 895.86 1389.94 955.66 1424.46 955.86 1286.02 925.46 1268.46"/>
        <polygon class="cls-30" points="985.86 1268.7 955.86 1286.02 955.66 1424.46 1015.86 1389.94 985.86 1268.7"/>
        <polygon class="cls-31" points="955.86 1251.38 925.46 1268.46 955.86 1286.02 985.86 1268.7 955.86 1251.38"/>
    </g>
    <g id="BigTree-3" data-name="BigTree">
        <ellipse class="cls-35" cx="1043.26" cy="1078.99" rx="42" ry="15.5"/>
        <polygon class="cls-28"
                 points="1042.6 1033.68 1042.6 1080.23 1054.29 1075.56 1054.29 1015.16 1042.6 1010.49 1042.6 1033.68"/>
        <polygon class="cls-28"
                 points="1042.98 1033.94 1042.98 1080.49 1031.29 1075.81 1031.29 1015.42 1042.98 1010.74 1042.98 1033.94"/>
        <polygon class="cls-29" points="1012.78 889.26 983.18 1010.73 1042.98 1045.26 1043.18 906.81 1012.78 889.26"/>
        <polygon class="cls-30" points="1073.18 889.49 1043.18 906.81 1042.98 1045.26 1103.18 1010.73 1073.18 889.49"/>
        <polygon class="cls-31" points="1043.18 872.17 1012.78 889.26 1043.18 906.81 1073.18 889.49 1043.18 872.17"/>
    </g>
    <g id="SmallTree-3" data-name="SmallTree">
        <ellipse class="cls-36" cx="657.38" cy="1697.72" rx="25.12" ry="9.27"/>
        <polygon class="cls-28"
                 points="656.99 1670.63 656.99 1698.47 663.98 1695.67 663.98 1659.55 656.99 1656.75 656.99 1670.63"/>
        <polygon class="cls-28"
                 points="657.22 1670.78 657.22 1698.62 650.22 1695.82 650.22 1659.7 657.22 1656.9 657.22 1670.78"/>
        <polygon class="cls-29" points="639.15 1584.24 621.45 1656.9 657.22 1677.55 657.34 1594.74 639.15 1584.24"/>
        <polygon class="cls-30" points="675.28 1584.38 657.34 1594.74 657.22 1677.55 693.23 1656.9 675.28 1584.38"/>
        <polygon class="cls-31" points="657.34 1574.02 639.15 1584.24 657.34 1594.74 675.28 1584.38 657.34 1574.02"/>
    </g>
    <g id="Pool">
        <polygon class="cls-37"
                 points="2066.99 1022.86 2396.99 832.33 2576.99 936.25 2216.99 1144.1 2036.98 1040.17 2066.99 1022.86"/>
        <polygon class="cls-38"
                 points="2036.98 1040.17 2396.99 832.33 2576.99 936.25 2546.99 953.57 2396.99 866.97 2066.99 1057.5 2036.98 1040.17"/>
    </g>
    <polygon class="cls-18"
             points="2096.92 1109.47 2126.92 1126.79 2066.92 1161.43 2096.92 1178.75 2066.92 1196.07 2126.92 1230.71 2186.92 1196.07 2156.92 1178.75 2186.92 1161.43 2156.92 1144.11 2186.92 1126.79 2126.92 1092.14 2096.92 1109.47"/>
    <polygon class="cls-18"
             points="2156.92 1144.11 2246.92 1196.07 2696.92 936.26 2576.92 866.98 2726.92 780.38 2666.92 745.74 2516.92 832.34 2426.92 780.38 2276.92 866.98 2126.92 780.38 2126.92 849.66 2216.92 901.62 2036.92 1005.54 2036.92 1040.17 2036.92 1074.83 2096.92 1109.47 2126.92 1092.14 2036.92 1040.17 2066.99 1022.85 2246.92 918.94 2396.99 832.33 2576.99 936.25 2216.99 1144.1 2186.92 1126.79 2156.92 1144.11"/>
    <polygon class="cls-19" points="2126.92 780.38 2126.92 849.66 2216.92 901.62 2276.92 866.98 2126.92 780.38"/>
    <g id="BigTree-4" data-name="BigTree">
        <ellipse class="cls-39" cx="2428.01" cy="780.92" rx="42" ry="15.5"/>
        <polygon class="cls-28"
                 points="2427.35 735.62 2427.35 782.17 2439.04 777.49 2439.04 717.1 2427.35 712.42 2427.35 735.62"/>
        <polygon class="cls-28"
                 points="2427.73 735.87 2427.73 782.42 2416.04 777.75 2416.04 717.35 2427.73 712.67 2427.73 735.87"/>
        <polygon class="cls-29" points="2397.53 591.19 2367.93 712.67 2427.73 747.19 2427.93 608.75 2397.53 591.19"/>
        <polygon class="cls-30" points="2457.93 591.43 2427.93 608.75 2427.73 747.19 2487.93 712.67 2457.93 591.43"/>
        <polygon class="cls-31" points="2427.93 574.11 2397.53 591.19 2427.93 608.75 2457.93 591.43 2427.93 574.11"/>
    </g>
    <g id="SmallTree-4" data-name="SmallTree">
        <ellipse class="cls-40" cx="2638.79" cy="938.83" rx="25.12" ry="9.27"/>
        <polygon class="cls-28"
                 points="2638.39 911.73 2638.39 939.58 2645.39 936.78 2645.39 900.65 2638.39 897.86 2638.39 911.73"/>
        <polygon class="cls-28"
                 points="2638.62 911.89 2638.62 939.73 2631.63 936.93 2631.63 900.81 2638.62 898.01 2638.62 911.89"/>
        <polygon class="cls-29" points="2620.56 825.35 2602.85 898.01 2638.62 918.66 2638.74 835.85 2620.56 825.35"/>
        <polygon class="cls-30" points="2656.69 825.49 2638.74 835.85 2638.62 918.66 2674.63 898.01 2656.69 825.49"/>
        <polygon class="cls-31" points="2638.74 815.12 2620.56 825.35 2638.74 835.85 2656.69 825.49 2638.74 815.12"/>
    </g>
    <g id="Elevator-2" data-name="Elevator">
        <polygon class="cls-13" points="1976.92 1836.93 1886.99 1888.82 1886.92 1784.97 1976.92 1733 1976.92 1836.93"/>
        <polygon class="cls-14"
                 points="1886.99 1888.82 1826.92 1854.25 1826.92 1750.33 1886.92 1784.97 1886.99 1888.82"/>
        <polygon class="cls-15" points="1826.92 1750.33 1916.92 1698.36 1976.92 1733 1886.92 1784.97 1826.92 1750.33"/>
        <polygon class="cls-14"
                 points="1864.94 1751.16 1894.39 1768.16 1894.39 1751.16 1864.94 1734.15 1864.94 1751.16"/>
        <polygon class="cls-13"
                 points="1894.39 1768.16 1938.57 1742.65 1938.57 1725.65 1894.39 1751.16 1894.39 1768.16"/>
    </g>
    <polygon class="cls-41" points="1827.04 1854.67 1792.66 1874.39 1887.2 1889.18 1827.04 1854.67"/>
    <polygon class="cls-19"
             points="2186.92 1646.4 2420.58 1781.31 2606.92 1888.89 2666.92 1854.25 2726.92 1888.89 2786.92 1854.25 2726.92 1819.61 2846.92 1750.33 2816.92 1733 2936.92 1663.72 2786.92 1577.12 2906.92 1507.84 2756.92 1421.23 2636.92 1490.52 2546.92 1438.56 2186.92 1646.4"/>
    <polygon class="cls-14" points="2306.92 1577.12 2306.92 1681.04 2486.92 1784.97 2486.92 1681.04 2306.92 1577.12"/>
    <polygon class="cls-13" points="2486.92 1681.04 2576.92 1629.08 2576.92 1733 2486.92 1784.97 2486.92 1681.04"/>
    <polygon class="cls-15" points="2306.92 1577.12 2396.92 1525.16 2576.92 1629.08 2486.92 1681.04 2306.92 1577.12"/>
    <line class="cls-42" x1="2396.92" y1="1629.08" x2="2396.92" y2="1733"/>
    <line class="cls-43" x1="2486.92" y1="1577.12" x2="2396.92" y2="1629.08"/>
    <polygon class="cls-13" points="2666.92 1681.04 2667.01 1785.4 2785.92 1716.68 2786.92 1611.76 2666.92 1681.04"/>
    <polygon class="cls-14" points="2667.01 1785.4 2577.01 1733.44 2576.92 1629.08 2666.92 1681.04 2667.01 1785.4"/>
    <polygon class="cls-15" points="2576.92 1629.08 2697.92 1558.8 2786.92 1611.76 2666.92 1681.04 2576.92 1629.08"/>
    <polygon class="cls-44" points="2306.82 1681.2 2216.92 1733 2486.92 1784.97 2306.82 1681.2"/>
    <polyline class="cls-45" points="2576.35 1733.36 2516.92 1767.64 2667.01 1785.4"/>
    <g id="SmallTree-5" data-name="SmallTree">
        <ellipse class="cls-46" cx="2727.27" cy="1854.22" rx="25.12" ry="9.27"/>
        <polygon class="cls-28"
                 points="2726.87 1827.12 2726.87 1854.96 2733.87 1852.17 2733.87 1816.04 2726.87 1813.25 2726.87 1827.12"/>
        <polygon class="cls-28"
                 points="2727.1 1827.27 2727.1 1855.12 2720.11 1852.32 2720.11 1816.19 2727.1 1813.4 2727.1 1827.27"/>
        <polygon class="cls-29"
                 points="2709.04 1740.73 2691.33 1813.39 2727.1 1834.05 2727.22 1751.23 2709.04 1740.73"/>
        <polygon class="cls-30"
                 points="2745.17 1740.87 2727.22 1751.23 2727.1 1834.05 2763.11 1813.39 2745.17 1740.87"/>
        <polygon class="cls-31"
                 points="2727.22 1730.51 2709.04 1740.73 2727.22 1751.23 2745.17 1740.87 2727.22 1730.51"/>
    </g>
    <g id="BigTree-5" data-name="BigTree">
        <ellipse class="cls-47" cx="2756.32" cy="1470.05" rx="42" ry="15.5"/>
        <polygon class="cls-28"
                 points="2755.66 1424.74 2755.66 1471.29 2767.35 1466.62 2767.35 1406.22 2755.66 1401.55 2755.66 1424.74"/>
        <polygon class="cls-28"
                 points="2756.04 1425 2756.04 1471.55 2744.35 1466.87 2744.35 1406.47 2756.04 1401.8 2756.04 1425"/>
        <polygon class="cls-29"
                 points="2725.84 1280.32 2696.24 1401.79 2756.04 1436.32 2756.24 1297.87 2725.84 1280.32"/>
        <polygon class="cls-30"
                 points="2786.24 1280.55 2756.24 1297.87 2756.04 1436.32 2816.24 1401.79 2786.24 1280.55"/>
        <polygon class="cls-31"
                 points="2756.24 1263.23 2725.84 1280.32 2756.24 1297.87 2786.24 1280.55 2756.24 1263.23"/>
    </g>
    <g id="SmallBuilding">
        <polygon class="cls-1" points="266.99 1438.47 266.99 1230.63 386.99 1299.91 386.99 1507.75 266.99 1438.47"/>
        <polygon class="cls-5" points="266.99 1438.47 266.99 1473.11 386.99 1542.39 386.99 1507.75 266.99 1438.47"/>
        <polygon class="cls-2" points="386.99 1299.91 596.99 1178.66 596.99 1386.51 386.99 1507.75 386.99 1299.91"/>
        <polygon class="cls-6" points="386.99 1542.39 596.99 1421.15 596.99 1386.51 386.99 1507.75 386.99 1542.39"/>
        <polygon class="cls-11" points="266.99 1230.63 476.99 1109.38 596.99 1178.66 386.99 1299.91 266.99 1230.63"/>
        <polygon class="cls-7" points="296.99 1282.59 296.99 1317.23 356.99 1351.87 356.99 1317.23 296.99 1282.59"/>
        <polygon class="cls-7" points="296.99 1351.87 297.02 1421.06 357.02 1455.7 356.99 1386.51 296.99 1351.87"/>
        <polyline class="cls-8" points="296.99 1282.59 296.99 1317.23 356.99 1351.87"/>
        <polyline class="cls-8" points="296.99 1351.87 297.15 1420.85 357.15 1455.49"/>
    </g>
    <g id="Block">
        <polygon class="cls-1" points="446.92 1473.2 446.9 1369.36 566.92 1438.56 566.92 1542.48 446.92 1473.2"/>
        <polygon class="cls-2" points="566.92 1438.56 686.92 1369.28 686.92 1473.2 566.92 1542.48 566.92 1438.56"/>
        <polygon class="cls-11" points="447.26 1369.3 567.28 1299.94 686.92 1369.28 566.92 1438.56 447.26 1369.3"/>
        <polygon class="cls-5" points="446.92 1473.2 446.92 1507.84 566.92 1577.13 566.92 1542.48 446.92 1473.2"/>
        <polygon class="cls-6" points="566.92 1577.13 686.92 1507.84 686.92 1473.2 566.92 1542.48 566.92 1577.13"/>
        <polygon class="cls-7" points="476.92 1421.24 476.92 1455.88 536.92 1490.52 536.92 1455.88 476.92 1421.24"/>
        <polyline class="cls-8" points="476.92 1421.24 477.85 1455.92 536.92 1490.52"/>
    </g>
    <polygon class="cls-18"
             points="836.98 1559.84 686.92 1473.2 686.98 1403.96 836.98 1317.36 896.98 1352 806.98 1403.96 866.98 1438.6 836.98 1455.92 866.98 1473.24 836.98 1490.56 896.98 1525.2 836.98 1559.84"/>
    <polygon class="cls-18"
             points="746.92 1369.27 686.92 1334.63 656.92 1317.31 626.92 1334.63 686.92 1369.28 686.98 1403.96 746.92 1369.27"/>
    <polygon class="cls-18"
             points="626.92 1126.79 596.92 1144.11 626.92 1161.43 686.92 1196.07 656.92 1213.39 716.92 1248.03 596.92 1317.31 626.92 1334.63 656.92 1351.95 806.92 1265.35 836.92 1282.67 896.92 1248.03 776.92 1178.75 746.92 1196.07 686.92 1161.43 626.92 1126.79"/>
    <polygon class="cls-19"
             points="806.92 1299.99 836.92 1282.67 806.92 1265.35 686.92 1334.63 746.92 1369.27 806.92 1334.63 836.92 1351.95 866.92 1334.63 806.92 1299.99"/>
    <polygon class="cls-14" points="2606.87 607.23 2606.87 711.15 2786.87 815.07 2786.87 711.15 2606.87 607.23"/>
    <polygon class="cls-13" points="2786.87 711.15 2876.87 659.19 2876.87 763.11 2786.87 815.07 2786.87 711.15"/>
    <polygon class="cls-15" points="2606.87 607.23 2696.87 555.26 2876.87 659.19 2786.87 711.15 2606.87 607.23"/>
    <line class="cls-42" x1="2696.87" y1="659.19" x2="2696.87" y2="763.11"/>
    <line class="cls-43" x1="2786.87" y1="607.22" x2="2696.87" y2="659.19"/>
    <polygon class="cls-48" points="2606.78 711.3 2516.87 763.11 2786.87 815.07 2606.78 711.3"/>
    <polygon class="cls-49" points="266.99 1473.11 206.92 1507.84 386.99 1542.39 266.99 1473.11"/>
    <polygon class="cls-50" points="446.92 1507.84 386.99 1542.39 566.92 1577.13 446.92 1507.84"/>
    <polygon class="cls-51" points="596.92 1109.47 536.92 1144.11 716.92 1178.75 596.92 1109.47"/>
    <polygon class="cls-52" points="1016.89 624.32 926.88 676.39 1226.88 745.67 1016.89 624.32"/>
    <g id="SmallBuilding-2" data-name="SmallBuilding">
        <polygon class="cls-1" points="596.38 1075.04 596.38 867.2 716.38 936.48 716.38 1144.33 596.38 1075.04"/>
        <polygon class="cls-5" points="596.38 1075.04 596.92 1109.47 716.92 1178.75 716.38 1144.33 596.38 1075.04"/>
        <polygon class="cls-2" points="716.38 936.48 926.38 815.24 926.38 1023.08 716.38 1144.33 716.38 936.48"/>
        <polygon class="cls-6" points="716.92 1178.75 926.38 1057.72 926.38 1023.08 716.38 1144.33 716.92 1178.75"/>
        <polygon class="cls-11" points="596.38 867.2 806.38 745.95 926.38 815.24 716.38 936.48 596.38 867.2"/>
        <polygon class="cls-7" points="626.38 919.16 626.38 953.8 686.38 988.44 686.38 953.8 626.38 919.16"/>
        <polygon class="cls-7" points="626.92 988.22 626.92 1092.14 686.92 1126.79 686.92 1022.86 626.92 988.22"/>
        <polyline class="cls-8" points="626.38 919.16 626.38 953.8 686.38 988.44"/>
        <polyline class="cls-8" points="626.92 988.22 626.92 1092.14 686.92 1126.79"/>
    </g>
    <path id="CLogo" class="cls-2"
          d="M438,1191.54s-11.27-5.24-21.71.46-7.75,13.29,3.56,19.81,26.11,8.42,36,2.71-.32-12.86-.32-12.86l20.07-10.29s11.33,5.25,11.19,14.33-8.6,15.42-15.45,19.32-16.11,9.42-34.49,9.33-28.94-4.41-37.78-9.51-18.85-12.88-16.9-24.27c1.32-7.73,6.55-13.33,14-17.64,31.16-18,61.81-2.71,61.81-2.71Z"/>
    <g id="CPP_Logo">
        <path class="cls-2"
              d="M826.41,832.62a5.91,5.91,0,0,0-2.39-2.56l-38.11-22a13.14,13.14,0,0,0-4.43-1.38L764.8,842.25Z"/>
        <path class="cls-2"
              d="M812.37,865.71l14.16-30.18a3.47,3.47,0,0,0-.12-2.91l-61.61,9.63-16.69,35.58a17.46,17.46,0,0,0,5,.07l52.27-8.18C808.43,869.25,811.56,867.45,812.37,865.71Z"/>
        <path class="cls-2"
              d="M781.48,806.68a17.11,17.11,0,0,0-5-.07l-52.27,8.17c-3,.47-6.14,2.28-6.95,4L703.06,849c-.82,1.74.31,4.2,2.51,5.47l38.11,22a13.61,13.61,0,0,0,4.43,1.38l16.69-35.58Z"/>
        <path class="cls-11"
              d="M791.41,857.62c-14.77,8.53-38.72,8.57-53.4.1s-14.6-22.31.17-30.83c9.53-5.5,23.51-7.69,36.49-5.71l-4.92,10.54c-6.5-1-13.5.1-18.26,2.85-7.39,4.26-7.42,11.18-.09,15.42s19.32,4.21,26.7,0c4.77-2.75,6.66-6.79,4.95-10.55l18.25-2.84C804.73,844,800.94,852.12,791.41,857.62Z"/>
        <polygon class="cls-11"
                 points="790.1 825.94 787.12 827.66 784.16 825.95 781.19 827.67 784.15 829.37 781.17 831.09 784.13 832.8 787.1 831.08 790.06 832.79 793.04 831.07 790.08 829.36 793.05 827.64 790.1 825.94"/>
        <polygon class="cls-11"
                 points="801.26 819.5 798.28 821.21 795.32 819.51 792.35 821.22 795.31 822.93 792.33 824.65 795.29 826.36 798.26 824.64 801.22 826.35 804.2 824.63 801.24 822.92 804.21 821.2 801.26 819.5"/>
    </g>
    <polygon class="cls-2" points="1226.88 468.54 1436.88 347.3 1436.88 589.79 1226.88 711.03 1226.88 468.54"/>
    <polygon class="cls-1" points="1226.88 468.54 1016.88 347.3 1016.88 589.79 1226.88 711.03 1226.88 468.54"/>
    <polygon class="cls-11" points="1016.88 347.3 1226.88 226.06 1436.88 347.3 1226.88 468.54 1016.88 347.3"/>
    <polygon class="cls-5" points="1016.88 589.79 1016.88 624.43 1226.88 745.67 1226.88 711.03 1016.88 589.79"/>
    <polygon class="cls-6" points="1436.88 589.79 1436.88 624.43 1226.88 745.67 1226.88 711.03 1436.88 589.79"/>
    <polygon class="cls-9" points="1256.92 693.77 1256.92 624.49 1406.92 537.89 1406.92 607.17 1256.92 693.77"/>
    <polygon class="cls-9" points="1256.92 485.93 1256.92 520.57 1406.92 433.97 1406.92 399.32 1256.92 485.93"/>
    <polygon class="cls-7" points="1046.92 399.32 1046.92 433.97 1076.92 451.29 1076.92 416.65 1046.92 399.32"/>
    <polygon class="cls-7" points="1106.92 433.97 1106.92 468.61 1136.92 485.93 1136.92 451.29 1106.92 433.97"/>
    <polygon class="cls-7" points="1166.92 468.61 1166.92 503.25 1196.92 520.57 1196.92 485.93 1166.92 468.61"/>
    <polyline class="cls-7" points="1196.92 485.93 1166.92 468.61 1166.92 503.25"/>
    <polygon class="cls-7" points="1166.8 537.72 1166.8 572.36 1196.8 589.68 1196.8 555.04 1166.8 537.72"/>
    <polygon class="cls-7" points="1046.8 468.44 1046.8 503.08 1076.8 520.4 1076.8 485.76 1046.8 468.44"/>
    <polygon class="cls-7" points="1106.8 503.08 1106.8 537.72 1136.8 555.04 1136.8 520.4 1106.8 503.08"/>
    <polyline class="cls-7" points="1196.8 555.04 1166.8 537.72 1166.8 572.36"/>
    <polygon class="cls-7" points="1166.89 607.12 1166.89 641.76 1196.89 659.08 1196.89 624.44 1166.89 607.12"/>
    <polygon class="cls-7" points="1046.89 537.84 1046.89 572.48 1076.89 589.8 1076.89 555.16 1046.89 537.84"/>
    <polygon class="cls-7" points="1106.89 572.48 1106.89 607.12 1136.89 624.44 1136.89 589.8 1106.89 572.48"/>
    <polyline class="cls-7" points="1196.89 624.44 1166.89 607.12 1166.89 641.76"/>
    <polygon class="cls-19"
             points="1256.92 728.41 1316.92 763.06 1196.92 832.34 1256.92 866.98 1616.92 659.13 1526.92 607.17 1466.92 641.81 1436.88 624.43 1256.92 728.41"/>
    <polygon class="cls-18"
             points="1226.88 745.67 1256.92 763.06 1196.92 797.7 1226.92 815.02 1316.92 763.06 1256.92 728.41 1226.88 745.67"/>
    <polygon class="cls-18"
             points="1436.88 624.43 1526.92 572.53 1586.92 607.17 1616.92 589.85 1646.92 607.17 1676.92 589.85 1706.92 607.17 1616.92 659.13 1526.92 607.17 1466.92 641.81 1436.88 624.43"/>
    <polygon class="cls-9" points="746.92 953.58 746.92 988.22 776.92 970.9 776.92 936.26 746.92 953.58"/>
    <polygon class="cls-9" points="806.92 918.94 806.92 953.58 836.92 936.26 836.92 901.62 806.92 918.94"/>
    <polygon class="cls-9" points="866.92 884.3 866.92 918.94 896.92 901.62 896.92 866.98 866.92 884.3"/>
    <polygon class="cls-9" points="746.84 1022.89 746.92 1092.14 776.92 1074.83 776.84 1005.57 746.84 1022.89"/>
    <polygon class="cls-9" points="806.84 988.25 806.92 1057.5 836.92 1040.18 836.84 970.93 806.84 988.25"/>
    <polygon class="cls-9" points="866.84 953.61 866.92 1022.86 896.92 1005.54 896.84 936.29 866.84 953.61"/>
    <polyline class="cls-8" points="1046.92 399.32 1046.92 433.97 1076.92 451.29"/>
    <polyline class="cls-8" points="1046.99 468.38 1046.99 503.03 1076.99 520.35"/>
    <polyline class="cls-8" points="1046.68 537.69 1046.68 572.33 1076.68 589.65"/>
    <polyline class="cls-8" points="1107.12 434.63 1107.12 469.27 1137.12 486.59"/>
    <polyline class="cls-8" points="1107.19 503.68 1107.19 538.33 1137.19 555.65"/>
    <polyline class="cls-8" points="1106.89 572.99 1106.89 607.63 1136.89 624.95"/>
    <polyline class="cls-8" points="1166.98 468.45 1166.98 503.09 1196.98 520.41"/>
    <polyline class="cls-8" points="1167.05 537.51 1167.05 572.15 1197.05 589.47"/>
    <polyline class="cls-8" points="1166.74 606.82 1166.74 641.46 1196.74 658.78"/>
    <path class="cls-2"
          d="M1308.54,350.23l-.57.33-.32-.18,1.55-.89.32.18-.57.33,1.59.92-.4.23Zm3.18-1.73h0l.94,1.2-.26.16-2.08-.55h0l1.52.88-.38.22-1.92-1.11.56-.32,1.88.48-.83-1.09.55-.32,1.92,1.11-.37.21-1.51-.87Z"/>
    <path class="cls-2"
          d="M1217.87,357.35s-1.69,3.65,5.94.14c9.24-4.24,13.35-6.77,20.78-13.05a83,83,0,0,0,8.56-1.71c-11.77,16.88-46.92,26.5-35.28,14.62"/>
    <path class="cls-2"
          d="M1204,352.22s-1.19,4.5,6.37.95c9.78-4.6,16.85-8.6,26.65-16.93a29.28,29.28,0,0,0,6.92-1c-17.58,18.47-51.83,30.58-39.94,17"/>
    <path class="cls-2"
          d="M1205.76,328.86c10.83.42,9.65,7.11,9.65,7.11s6.25-11.21-7.88-12.56c-13.19-1.26-21.23-1-11.55-21.82,0,0-27,25.84,9.78,27.27"/>
    <path class="cls-2"
          d="M1272,335.81s5.38-.31,1,4.37c-8.28,8.89-44.63,31.12-59.52,34.53-5.36,1.22-.59-4.12,1.15-5.67a16.25,16.25,0,0,1,3.21-2.31c-7.07.72-21.16,18.81-3.36,11.38,48.55-20.25,73.18-45.75,57.48-42.3"/>
    <path class="cls-2"
          d="M1196.59,342.84s-14.54,13.59-.62,7.43c5.89-2.6,16.08-8.66,24.92-14.69,7.21-4.93,13.72-10.31,13.72-10.31a20.69,20.69,0,0,0-2.24,4.23c-14.28,14.08-54,34.29-48.39,25.1a35,35,0,0,1,12.61-11.76"/>
    <path class="cls-2"
          d="M1249.71,334.08c9.5-17.21-9.33-17.59-14.36-13.17a12,12,0,0,0-1.65,1.64,1.81,1.81,0,0,1,.39-1.71c8.17-9.77,35.13-5.35,15.74,13.76a.85.85,0,0,0-.12-.52"/>
    <path class="cls-2"
          d="M1161.6,296.89s21.7,0,17.13,21.81c-3.66,17.52,17.08,14.34,29.64,17.12-18.82.59-33.94.28-36.35-6.76-3.53-10.32,11.15-24.79-10.42-32.17"/>
    <path class="cls-2"
          d="M1245,368.56c20.06-10.2,47.16-28,39-33.52,0,0,2,2.7-9.56,12.48-13.09,11-33.3,22.3-47,28,0,0,4.39-.25,17.58-6.95"/>
    <path class="cls-2"
          d="M1275.79,389.91a5.9,5.9,0,0,1-3,4.47,7.29,7.29,0,0,1-7.44,0c-2.49-1.43-2.92-3.29,2.67-6.52l2.07-1.19,5.65,3.26m10.42.34-17-9.84c-4.35-2.51-9.72-2.73-15.75.75a21.11,21.11,0,0,0-7.13,6.39l3.74,1.33a20.24,20.24,0,0,1,5.64-4.86c3.47-2,6.35-2.07,9.22-.41l2.15,1.24-1.73,1c-8.43,4.87-9,8.95-4.1,11.76,4.21,2.44,9.11,2.37,13.83-.35,3-1.75,4.06-3.78,4.35-6.05l3,1.27,3.86-2.23Z"/>
    <path class="cls-2"
          d="M1302.59,380.79l-6.12,3.54-31.21-9.51,5.35-3.09,19.22,5.82,5.42,1.95A81.48,81.48,0,0,0,1281,365.75l5.2-3c6.46,5.34,12.56,11.76,16.42,18"/>
    <path class="cls-2"
          d="M1320.58,364.05a5.89,5.89,0,0,1-3,4.47,7.32,7.32,0,0,1-7.44,0c-2.49-1.44-2.91-3.3,2.68-6.53l2.07-1.19,5.65,3.26m10.42.34-17-9.84c-4.35-2.51-9.73-2.72-15.74.75a21.06,21.06,0,0,0-7.14,6.39l3.73,1.33a20.45,20.45,0,0,1,5.65-4.86c3.46-2,6.35-2.07,9.22-.41l2.15,1.24-1.73,1c-8.44,4.87-9,8.95-4.1,11.77,4.21,2.43,9.11,2.37,13.83-.36,3-1.75,4-3.78,4.35-6l3,1.27,3.86-2.23Z"/>
    <path class="cls-2"
          d="M1266,406.6c.63,2,0,4.21-1.59,6.17l-5.26-.24a5,5,0,0,0,.3-4.74c-.64-1.12-2-2.23-6-4.52l-27.21-15.71,5.22-3,26.84,15.5c5.29,3.05,7,4.54,7.69,6.55"/>
    <polygon class="cls-18"
             points="1286.92 711.09 1346.92 745.74 1376.92 728.41 1436.92 763.06 1526.92 711.09 1436.92 659.13 1406.92 641.81 1286.92 711.09"/>
    <g id="SmallBuilding-3" data-name="SmallBuilding">
        <polygon class="cls-1" points="1946.92 364.68 1946.92 156.84 2156.92 278.08 2156.45 486.13 1946.92 364.68"/>
        <polygon class="cls-5" points="1946.92 364.68 1946.92 399.32 2156.99 520.56 2156.45 486.13 1946.92 364.68"/>
        <polygon class="cls-2" points="2156.92 278.08 2366.45 157.04 2366.45 364.89 2156.45 486.13 2156.92 278.08"/>
        <polygon class="cls-6" points="2156.99 520.56 2366.45 399.53 2366.45 364.89 2156.45 486.13 2156.99 520.56"/>
        <polygon class="cls-11" points="1946.92 156.84 2156.92 35.59 2366.92 156.84 2156.92 278.08 1946.92 156.84"/>
        <polygon class="cls-7" points="2066.45 260.97 2066.45 295.61 2126.45 330.25 2126.45 295.61 2066.45 260.97"/>
        <polygon class="cls-7" points="2066.99 330.03 2066.99 433.95 2126.99 468.6 2126.99 364.67 2066.99 330.03"/>
        <polyline class="cls-8" points="2066.45 260.97 2066.45 295.61 2126.45 330.25"/>
        <polyline class="cls-8" points="2066.99 330.03 2066.99 433.95 2126.99 468.6"/>
    </g>
    <g id="Block-2" data-name="Block">
        <polygon class="cls-1" points="2246.92 433.95 2246.88 226.09 2366.88 295.35 2366.92 503.23 2246.92 433.95"/>
        <polygon class="cls-2" points="2366.88 295.35 2486.88 226.07 2486.92 433.95 2366.92 503.23 2366.88 295.35"/>
        <polygon class="cls-11" points="2246.88 226.09 2366.88 156.81 2486.88 226.07 2366.88 295.35 2246.88 226.09"/>
        <polygon class="cls-5" points="2246.92 433.95 2246.92 468.59 2366.92 537.87 2366.92 503.23 2246.92 433.95"/>
        <polygon class="cls-6" points="2366.92 537.87 2486.92 468.59 2486.92 433.95 2366.92 503.23 2366.92 537.87"/>
        <polygon class="cls-7" points="2276.92 347.36 2276.92 416.63 2336.92 451.27 2336.92 382 2276.92 347.36"/>
        <polyline class="cls-8" points="2276.92 347.36 2276.92 416.63 2336.92 451.27"/>
    </g>
    <polygon class="cls-7" points="2276.54 277.96 2276.54 312.6 2336.54 347.24 2336.54 312.6 2276.54 277.96"/>
    <polyline class="cls-8" points="2276.83 277.88 2276.83 312.52 2336.83 347.16"/>
    <polygon class="cls-9" points="2186.92 295.4 2186.92 330.04 2216.92 312.72 2216.92 278.08 2186.92 295.4"/>
    <polygon class="cls-9" points="2186.92 364.68 2186.92 433.97 2216.92 416.65 2216.92 347.36 2186.92 364.68"/>
    <polygon class="cls-7" points="1976.92 208.8 1976.92 278.08 2036.92 312.72 2036.92 243.44 1976.92 208.8"/>
    <polygon class="cls-7" points="1976.92 312.72 1976.92 347.36 2036.92 382 2036.92 347.36 1976.92 312.72"/>
    <polyline class="cls-8" points="1976.92 208.8 1976.92 278.08 2036.92 312.72"/>
    <polyline class="cls-8" points="1976.92 312.72 1976.92 347.36 2036.92 382"/>
    <polygon class="cls-9" points="2396.92 312.72 2396.92 347.36 2456.92 312.72 2456.92 278.08 2396.92 312.72"/>
    <polygon class="cls-9" points="2396.92 382 2396.92 451.29 2456.92 416.65 2456.92 347.36 2396.92 382"/>
    <polygon class="cls-18"
             points="2006.92 433.97 1946.92 468.61 1976.92 485.93 1946.92 503.25 2066.92 572.53 2126.92 537.89 2096.92 520.57 2126.92 503.25 2006.92 433.97"/>
    <polygon class="cls-19"
             points="2096.92 589.85 2126.92 607.17 2156.92 589.85 2186.92 607.17 2216.92 589.85 2186.92 572.53 2216.92 555.21 2186.92 537.89 2216.92 520.57 2186.92 503.25 2156.99 520.56 2126.92 503.25 2096.92 520.57 2126.92 537.89 2066.92 572.53 2096.92 589.85"/>
    <polygon class="cls-19"
             points="1976.92 416.65 1870.7 477.97 1900.63 495.33 1916.92 485.93 1946.92 503.25 1976.92 485.93 1946.92 468.61 2006.92 433.97 1976.92 416.65"/>
    <polygon class="cls-19"
             points="1856.92 451.29 1886.92 433.97 1856.92 416.65 1886.92 399.32 1946.92 433.97 1886.92 468.61 1856.92 451.29"/>
    <polygon class="cls-9" points="1256.92 555.21 1256.92 589.85 1406.92 503.25 1406.92 468.61 1256.92 555.21"/>
    <path class="cls-2"
          d="M2095.87,120a99.15,99.15,0,0,0-13,8.88c-10.35,8.52-8,12.5.49,17.41l11.23,6.48,29.66-17.12,3.74,2.16-29.65,17.12-11.13,6.43c-8.62,5-11,12.31-3.59,19.32,8.5,8.05,15.39,12.17,29.95,17.29,10.83,3.82,22.08,4.5,30.7-.48l10.2-5.88L2141,183.78c-9.73-5.61-9.84-15.46.22-21.26l29.62-17.1c8.24-4.77,8.08-12.46-.14-17.21L2142.67,112c-8-4.61-20.76-4.16-30.16-.28a138.73,138.73,0,0,0-16.65,8.22Zm-7,14.48a12.41,12.41,0,0,1,11.2,0c3.09,1.79,3.1,4.68,0,6.44a12.3,12.3,0,0,1-11.16,0C2085.82,139.1,2085.79,136.2,2088.86,134.43Z"/>
    <path class="cls-2"
          d="M2161.34,118.52l13.09,7.56c10.14,5.85,10,15.78.15,21.48L2145,164.66c-8.11,4.69-7.93,12.55.14,17.21l28.06,16.2c8,4.61,19.68,3.29,29.8.08,12.14-3.84,21.64-8.75,29.62-17.1,5.32-5.55,8.37-12.3-.13-17.21l-11.24-6.48-29.62,17.1-3.74-2.16,29.62-17.11,14.83-8.56c8.62-5,5.86-10.28-.1-17.19-6.14-7.11-15.15-12.17-29.95-17.29-10.66-3.69-21.14-5-29.77-.06l-11.13,6.43Zm54.41,50.65a12.3,12.3,0,0,1,11.16,0c3.11,1.79,3.14,4.69.07,6.46a12.38,12.38,0,0,1-11.2,0C2212.69,173.83,2212.68,170.94,2215.75,169.17Z"/>
    <polygon class="cls-18"
             points="2156.92 797.7 2186.92 780.38 2216.92 797.7 2246.92 780.38 2276.92 797.7 2246.92 815.02 2306.92 849.66 2276.92 866.98 2156.92 797.7"/>
    <polygon class="cls-18"
             points="2156.92 866.98 2126.92 884.3 2156.92 901.62 2126.92 918.94 2096.92 936.26 2126.92 953.58 2216.92 901.62 2156.92 866.98"/>
    <polygon class="cls-18"
             points="2486.92 815.02 2516.92 797.7 2486.92 780.38 2516.87 763.11 2576.92 797.7 2516.92 832.34 2486.92 815.02"/>
    <polygon class="cls-18" points="2666.92 815.02 2696.92 832.34 2726.92 815.02 2696.92 797.7 2666.92 815.02"/>
    <polygon class="cls-19"
             points="1856.92 1317.31 1826.92 1334.63 1856.92 1351.95 1826.92 1369.27 1796.92 1386.59 1826.92 1403.91 1796.92 1421.23 1826.92 1438.56 1946.92 1369.27 1856.92 1317.31"/>
    <polygon class="cls-18"
             points="1886.92 1334.63 1916.92 1317.31 1886.92 1299.99 1916.92 1282.67 1946.92 1299.99 1976.92 1317.31 2006.92 1299.99 2036.92 1317.31 2006.92 1334.63 1976.92 1351.95 1946.92 1369.27 1886.92 1334.63"/>
    <g id="NewSmall">
        <polygon class="cls-1"
                 points="3266.92 1161.45 3266.92 1369.29 3537.11 1525.07 3536.92 1317.33 3266.92 1161.45"/>
        <polygon class="cls-2"
                 points="3296.92 1455.89 3686.92 1230.73 3686.92 1438.58 3297.12 1663.63 3296.92 1455.89"/>
        <polygon class="cls-11"
                 points="3266.92 1161.45 3416.92 1074.85 3686.92 1230.73 3536.92 1317.33 3266.92 1161.45"/>
        <polygon class="cls-7"
                 points="3296.91 1213.39 3296.91 1248.03 3356.91 1282.67 3356.91 1248.03 3296.91 1213.39"/>
        <polygon class="cls-7"
                 points="3386.91 1265.35 3386.91 1299.99 3416.91 1317.31 3416.91 1282.67 3386.91 1265.35"/>
        <polygon class="cls-7"
                 points="3446.91 1299.99 3446.91 1334.63 3506.91 1369.28 3506.91 1334.63 3446.91 1299.99"/>
        <polygon class="cls-7"
                 points="3296.91 1282.67 3296.91 1351.95 3326.91 1369.28 3326.91 1299.99 3296.91 1282.67"/>
        <polygon class="cls-7"
                 points="3356.91 1317.31 3356.91 1386.6 3446.91 1438.56 3446.91 1403.92 3446.91 1369.28 3356.91 1317.31"/>
        <polygon class="cls-7" points="3476.91 1386.6 3476.91 1455.88 3506.91 1473.2 3506.91 1403.92 3476.91 1386.6"/>
        <polyline class="cls-8" points="3296.91 1282.67 3296.91 1351.95 3326.91 1369.28"/>
        <polyline class="cls-8" points="3356.91 1317.31 3356.91 1386.6 3446.91 1438.56"/>
        <polyline class="cls-8" points="3296.91 1213.39 3296.91 1248.03 3356.91 1282.67"/>
        <polyline class="cls-8" points="3386.91 1265.35 3386.91 1299.99 3416.91 1317.31"/>
        <polyline class="cls-8" points="3446.91 1299.99 3446.91 1334.63 3506.91 1369.28"/>
        <polyline class="cls-8" points="3476.91 1386.6 3476.91 1455.88 3506.91 1473.2"/>
        <polygon class="cls-10"
                 points="3566.91 1334.63 3566.91 1369.28 3656.91 1317.31 3656.91 1282.67 3566.91 1334.63"/>
        <polygon class="cls-10" points="3566.91 1403.92 3566.91 1473.2 3596.91 1455.88 3596.91 1386.6 3566.91 1403.92"/>
        <polygon class="cls-10"
                 points="3626.91 1369.28 3656.91 1351.95 3656.91 1421.24 3626.91 1438.56 3626.91 1369.28"/>
        <polygon class="cls-5" points="3266.92 1369.29 3266.91 1403.92 3536.91 1559.8 3537.11 1525.07 3266.92 1369.29"/>
        <polygon class="cls-6" points="3296.92 1698.36 3686.91 1473.2 3686.92 1438.58 3297.12 1663.63 3296.92 1698.36"/>
        <polygon class="cls-53" points="3267.37 1404.04 3146.91 1473.2 3536.91 1559.8 3267.37 1404.04"/>
    </g>
    <g id="NewSmall-2" data-name="NewSmall">
        <polygon class="cls-1"
                 points="3026.92 1300.01 3026.92 1507.86 3297.12 1663.63 3296.92 1455.89 3026.92 1300.01"/>
        <polygon class="cls-2"
                 points="3296.92 1455.89 3446.92 1369.29 3446.92 1577.14 3297.12 1663.63 3296.92 1455.89"/>
        <polygon class="cls-11"
                 points="3026.92 1300.01 3176.92 1213.41 3446.92 1369.29 3296.92 1455.89 3026.92 1300.01"/>
        <polygon class="cls-7"
                 points="3056.92 1351.95 3056.92 1386.59 3116.92 1421.23 3116.92 1386.59 3056.92 1351.95"/>
        <polygon class="cls-7"
                 points="3146.92 1403.91 3146.92 1438.56 3176.92 1455.88 3176.92 1421.23 3146.92 1403.91"/>
        <polygon class="cls-7" points="3206.92 1438.56 3206.92 1473.2 3266.92 1507.84 3266.92 1473.2 3206.92 1438.56"/>
        <polygon class="cls-7"
                 points="3056.92 1421.23 3056.92 1490.52 3086.92 1507.84 3086.92 1438.56 3056.92 1421.23"/>
        <polygon class="cls-7"
                 points="3116.92 1455.88 3116.92 1525.16 3206.92 1577.12 3206.92 1542.48 3206.92 1507.84 3116.92 1455.88"/>
        <polygon class="cls-7"
                 points="3236.92 1525.16 3236.92 1594.44 3266.92 1611.76 3266.92 1542.48 3236.92 1525.16"/>
        <polyline class="cls-8" points="3056.92 1421.23 3056.92 1490.52 3086.92 1507.84"/>
        <polyline class="cls-8" points="3116.92 1455.88 3116.92 1525.16 3206.92 1577.12"/>
        <polyline class="cls-8" points="3056.92 1351.95 3056.92 1386.59 3116.92 1421.23"/>
        <polyline class="cls-8" points="3146.92 1403.91 3146.92 1438.56 3176.92 1455.88"/>
        <polyline class="cls-8" points="3206.92 1438.56 3206.92 1473.2 3266.92 1507.84"/>
        <polyline class="cls-8" points="3236.92 1525.16 3236.92 1594.44 3266.92 1611.76"/>
        <polygon class="cls-10" points="3326.92 1473.2 3326.92 1507.84 3416.92 1455.88 3416.92 1421.23 3326.92 1473.2"/>
        <polygon class="cls-10"
                 points="3326.92 1542.48 3326.92 1611.76 3356.92 1594.44 3356.92 1525.16 3326.92 1542.48"/>
        <polygon class="cls-10"
                 points="3386.92 1507.84 3416.92 1490.52 3416.92 1559.8 3386.92 1577.12 3386.92 1507.84"/>
        <polygon class="cls-5"
                 points="3026.92 1507.86 3026.92 1542.48 3296.92 1698.36 3297.12 1663.63 3026.92 1507.86"/>
        <polygon class="cls-6"
                 points="3296.92 1698.36 3446.92 1611.76 3446.92 1577.14 3297.12 1663.63 3296.92 1698.36"/>
        <polygon class="cls-54" points="3027.38 1542.6 2906.92 1611.76 3296.92 1698.36 3027.38 1542.6"/>
    </g>
    <polygon class="cls-55" points="1946.88 399.3 1856.88 451.37 2156.99 520.56 1946.88 399.3"/>
    <polygon class="cls-19"
             points="2846.92 1473.2 2996.92 1386.59 3026.92 1403.91 3027.38 1542.6 2966.92 1577.12 2936.92 1594.44 2876.92 1629.08 2786.92 1577.12 2906.92 1507.84 2846.92 1473.2"/>
    <polygon class="cls-18"
             points="2486.92 1473.2 2546.92 1507.84 2576.92 1490.52 2666.92 1542.48 2726.92 1507.84 2756.92 1525.16 2816.92 1490.52 2846.92 1507.84 2966.92 1438.56 2996.92 1455.88 3026.92 1438.56 3026.92 1507.86 2996.92 1525.16 2966.92 1542.48 2936.92 1525.16 2846.92 1577.12 2816.92 1559.8 2756.92 1594.44 2696.92 1559.8 2606.92 1611.76 2426.92 1507.84 2486.92 1473.2"/>
    <polygon class="cls-2" points="3446.92 1369.29 3536.92 1317.33 3537.11 1525.07 3446.92 1577.14 3446.92 1369.29"/>
    <polygon class="cls-6" points="3446.92 1577.14 3537.11 1525.07 3536.91 1559.8 3446.92 1611.76 3446.92 1577.14"/>
    <polygon class="cls-11" points="3326.91 1299.99 3416.92 1248.03 3536.92 1317.33 3446.92 1369.29 3326.91 1299.99"/>
    <polygon class="cls-10" points="3446.91 1403.92 3446.91 1438.56 3536.92 1386.59 3536.92 1351.95 3446.91 1403.92"/>
    <polygon class="cls-10" points="3446.92 1473.2 3446.92 1542.48 3476.92 1525.16 3476.91 1455.88 3446.92 1473.2"/>
    <polygon class="cls-10" points="3506.92 1438.56 3506.92 1507.84 3536.92 1490.52 3536.92 1421.23 3506.92 1438.56"/>
    <polygon class="cls-19"
             points="3176.92 1074.83 3236.92 1109.47 3146.92 1161.43 3176.92 1178.75 3146.92 1196.07 3176.92 1213.41 3266.92 1265.35 3266.92 1161.45 3416.92 1074.85 3356.92 1040.18 3326.92 1057.5 3266.92 1022.86 3176.92 1074.83"/>
    <polygon class="cls-18"
             points="2906.92 1438.56 2876.92 1421.23 2936.92 1386.59 2906.92 1369.27 2966.92 1334.63 2936.92 1317.31 2996.92 1282.67 3146.92 1196.07 3176.92 1178.75 3206.92 1196.07 3236.92 1213.39 3206.92 1230.71 3176.92 1213.41 3056.92 1282.67 3026.92 1300.01 3026.92 1403.91 2996.92 1386.59 2906.92 1438.56"/>
    <g id="BigTree-6" data-name="BigTree">
        <ellipse class="cls-56" cx="3357.92" cy="1073.25" rx="42" ry="15.5"/>
        <polygon class="cls-28"
                 points="3357.25 1027.95 3357.25 1074.5 3368.94 1069.82 3368.94 1009.43 3357.25 1004.75 3357.25 1027.95"/>
        <polygon class="cls-28"
                 points="3357.63 1028.2 3357.63 1074.75 3345.94 1070.08 3345.94 1009.68 3357.63 1005 3357.63 1028.2"/>
        <polygon class="cls-29" points="3327.43 883.52 3297.83 1005 3357.63 1039.52 3357.83 901.08 3327.43 883.52"/>
        <polygon class="cls-30" points="3387.83 883.76 3357.83 901.08 3357.63 1039.52 3417.83 1005 3387.83 883.76"/>
        <polygon class="cls-31" points="3357.83 866.43 3327.43 883.52 3357.83 901.08 3387.83 883.76 3357.83 866.43"/>
    </g>
    <g id="SmallTree-6" data-name="SmallTree">
        <ellipse class="cls-57" cx="3176.8" cy="1177.51" rx="25.12" ry="9.27"/>
        <polygon class="cls-28"
                 points="3176.4 1150.41 3176.4 1178.25 3183.39 1175.46 3183.39 1139.33 3176.4 1136.54 3176.4 1150.41"/>
        <polygon class="cls-28"
                 points="3176.63 1150.56 3176.63 1178.41 3169.63 1175.61 3169.63 1139.48 3176.63 1136.69 3176.63 1150.56"/>
        <polygon class="cls-29"
                 points="3158.56 1064.02 3140.86 1136.68 3176.63 1157.34 3176.75 1074.52 3158.56 1064.02"/>
        <polygon class="cls-30"
                 points="3194.69 1064.16 3176.75 1074.52 3176.63 1157.34 3212.64 1136.68 3194.69 1064.16"/>
        <polygon class="cls-31" points="3176.75 1053.8 3158.56 1064.02 3176.75 1074.52 3194.69 1064.16 3176.75 1053.8"/>
    </g>
    <polygon class="cls-13" points="3596.92 1005.54 3596.92 1109.47 3716.92 1040.18 3716.92 936.26 3596.92 1005.54"/>
    <polygon class="cls-14" points="3596.92 1109.47 3506.92 1057.5 3506.92 953.58 3596.92 1005.54 3596.92 1109.47"/>
    <polygon class="cls-15" points="3506.92 953.58 3626.92 884.3 3716.92 936.26 3596.92 1005.54 3506.92 953.58"/>
    <polygon class="cls-19"
             points="3387.02 1057.57 3417.02 1040.25 3447.02 1057.57 3506.92 1022.86 3506.92 1057.5 3597.02 1109.54 3627.02 1092.21 3687.02 1126.86 3627.02 1161.5 3597.02 1144.18 3567.02 1161.5 3387.02 1057.57"/>
    <polygon class="cls-19"
             points="3656.92 1109.47 3776.92 1040.18 3716.92 1005.54 3716.92 1040.18 3626.92 1092.14 3656.92 1109.47"/>
    <path class="cls-2"
          d="M3407.63,1341.11l-26.54-10.31-.57.33,17.86,15.32-9.6,5.55-43.1-16.75,7.69-4.44,30.63,12.76.5-.29-21.25-18.18,7.62-4.39,31.56,12.22.49-.28L3380.75,1315l7.33-4.23,29.08,24.84Zm44.87-25.91L3426,1304.89l-.57.33,17.86,15.32-9.61,5.55-43.09-16.75,7.68-4.44,30.64,12.76.5-.28-21.25-18.18,7.61-4.4L3447.3,1307l.5-.29-22.17-17.65,7.33-4.23L3462,1309.7Zm44.88-25.9L3470.84,1279l-.56.32,17.85,15.32-9.6,5.55-43.09-16.75,7.68-4.44,30.63,12.76.5-.28L3453,1273.29l7.61-4.4,31.56,12.23.49-.29-22.17-17.65,7.33-4.23,29.08,24.84Z"/>
    <polygon class="cls-16" points="896.92 1975.49 -33.08 1438.56 -33.08 1854.25 896.92 2391.18 896.92 1975.49"/>
    <line class="cls-58" x1="-1.55" y1="1664.61" x2="875.95" y2="2171.23"/>
    <line class="cls-59" x1="886.53" y1="2177.34" x2="896.92" y2="2183.34"/>
    <polygon class="cls-60" points="2246.91 468.62 2157.01 520.43 2366.92 537.87 2246.91 468.62"/>
    <line class="cls-42" x1="3549.15" y1="977.96" x2="3549.15" y2="1081.78"/>
    <polyline class="cls-61" points="3506.92 1057.5 3446.92 1092.14 3597.1 1109.14"/>
</svg>
