<svg viewBox="0 0 4000 2423" fill="none" xmlns="http://www.w3.org/2000/svg">
    <g clip-path="url(#clip0_2:435)">
        <path d="M1106.92 953.58V1196.07L1316.92 1317.31V1074.83L1106.92 953.58Z" fill="#1A353C"/>
        <path d="M1316.92 1317.31L1616.92 1144.11V901.62L1316.92 1074.83V1317.31Z" fill="#334B51"/>
        <path d="M1616.92 1144.11L1826.92 1265.35V1022.86L1616.92 901.62V1144.11Z" fill="#1A353C"/>
        <path d="M1826.92 1265.35L2036.92 1144.11V901.62L1826.92 1022.86V1265.35Z" fill="#334B51"/>
        <path d="M2126.92 607.17V849.66L2036.92 901.62L1826.92 780.38L2126.92 607.17Z" fill="#334B51"/>
        <path d="M1616.92 1144.11V1178.75L1826.92 1299.99V1265.35L1616.92 1144.11Z" fill="#001B22"/>
        <path d="M1316.92 1351.95L1616.92 1178.75V1144.11L1316.92 1317.31V1351.95Z" fill="#1A353C"/>
        <path d="M1826.92 1299.99L2036.92 1178.75V1144.11L1826.92 1265.35V1299.99Z" fill="#1A353C"/>
        <path d="M2126.92 849.66V884.3L2036.92 936.26V901.62L2126.92 849.66Z" fill="#1A353C"/>
        <path d="M1106.92 1196.07V1230.71L1316.92 1351.95V1317.31L1106.92 1196.07Z" fill="#001B22"/>
        <path d="M1136.92 1074.47V1109.11L1287 1196V1161.12L1136.92 1074.47Z" fill="white"/>
        <path d="M1287 1196L1136.92 1109.11V1074.47" fill="white"/>
        <path d="M1287 1196L1136.92 1109.11V1074.47" stroke="#001B22" stroke-width="4" stroke-miterlimit="10"/>
        <path d="M1136.92 1144.47V1179.11L1287 1266V1231.12L1136.92 1144.47Z" fill="white"/>
        <path d="M1287 1266L1136.92 1179.11V1144.47" fill="white"/>
        <path d="M1287 1266L1136.92 1179.11V1144.47" stroke="#001B22" stroke-width="4" stroke-miterlimit="10"/>
        <path d="M1136.52 1005.28V1039.92L1286.6 1126.82V1091.93L1136.52 1005.28Z" fill="white"/>
        <path d="M1286.6 1126.82L1136.52 1039.92V1005.28" fill="white"/>
        <path d="M1286.6 1126.82L1136.52 1039.92V1005.28" stroke="#001B22" stroke-width="4" stroke-miterlimit="10"/>
        <path d="M1347 1092V1126.83L1407 1092V1057.46L1347 1092Z" fill="white" stroke="#1A353C" stroke-width="4" stroke-miterlimit="10"/>
        <path d="M1529 988V1022.83L1589 988V953.46L1529 988Z" fill="white" stroke="#1A353C" stroke-width="4" stroke-miterlimit="10"/>
        <path d="M1437 1040V1074.83L1497 1040V1005.46L1437 1040Z" fill="white" stroke="#1A353C" stroke-width="4" stroke-miterlimit="10"/>
        <path d="M1351 1161V1195.83L1411 1161V1126.46L1351 1161Z" fill="white" stroke="#1A353C" stroke-width="4" stroke-miterlimit="10"/>
        <path d="M1533 1057V1091.83L1593 1057V1022.46L1533 1057Z" fill="white" stroke="#1A353C" stroke-width="4" stroke-miterlimit="10"/>
        <path d="M1441 1109V1143.83L1501 1109V1074.46L1441 1109Z" fill="white" stroke="#1A353C" stroke-width="4" stroke-miterlimit="10"/>
        <path d="M1350 1230.61V1265.44L1410 1230.61V1196.07L1350 1230.61Z" fill="white" stroke="#1A353C" stroke-width="4" stroke-miterlimit="10"/>
        <path d="M1532 1126.61V1161.44L1592 1126.61V1092.07L1532 1126.61Z" fill="white" stroke="#1A353C" stroke-width="4" stroke-miterlimit="10"/>
        <path d="M1440 1178.61V1213.44L1500 1178.61V1144.07L1440 1178.61Z" fill="white" stroke="#1A353C" stroke-width="4" stroke-miterlimit="10"/>
        <path d="M1854 797.26V832.09L1914 797.26V762.72L1854 797.26Z" fill="white" stroke="#001B22" stroke-width="4" stroke-miterlimit="10"/>
        <path d="M2036 693.26V728.09L2096 693.26V658.72L2036 693.26Z" fill="white" stroke="#001B22" stroke-width="4" stroke-miterlimit="10"/>
        <path d="M1944 745.26V780.09L2004 745.26V710.72L1944 745.26Z" fill="white" stroke="#001B22" stroke-width="4" stroke-miterlimit="10"/>
        <path d="M1858 866.26V901.09L1918 866.26V831.72L1858 866.26Z" fill="white" stroke="#001B22" stroke-width="4" stroke-miterlimit="10"/>
        <path d="M2040 762.26V797.09L2100 762.26V727.72L2040 762.26Z" fill="white" stroke="#001B22" stroke-width="4" stroke-miterlimit="10"/>
        <path d="M1948 814.26V849.09L2008 814.26V779.72L1948 814.26Z" fill="white" stroke="#001B22" stroke-width="4" stroke-miterlimit="10"/>
        <path d="M1857 935.87V970.7L1917 935.87V901.32L1857 935.87Z" fill="white" stroke="#001B22" stroke-width="4" stroke-miterlimit="10"/>
        <path d="M2039 831.87V866.7L2099 831.87V797.32L2039 831.87Z" fill="white" stroke="#001B22" stroke-width="4" stroke-miterlimit="10"/>
        <path d="M1947 883.87V918.7L2007 883.87V849.32L1947 883.87Z" fill="white" stroke="#001B22" stroke-width="4" stroke-miterlimit="10"/>
        <path d="M1136.92 970.9L1316.92 1074.83L1616.92 901.62L1826.92 1022.86L2036.92 901.62L1826.92 780.38L2126.92 607.17L1916.92 485.93L1616.92 659.13L1106.92 953.58L1136.92 970.9Z" fill="#4D6267"/>
        <path d="M1857 1248V1179L2007 1092V1161L1857 1248Z" fill="white" stroke="#1A353C" stroke-width="4" stroke-miterlimit="10"/>
        <path d="M1857 1039.61V1074.45L1917 1039.61V1005.07L1857 1039.61Z" fill="white" stroke="#1A353C" stroke-width="4" stroke-miterlimit="10"/>
        <path d="M1947 987.61V1022.45L2007 987.61V953.07L1947 987.61Z" fill="white" stroke="#1A353C" stroke-width="4" stroke-miterlimit="10"/>
        <path d="M1859 1108.61V1143.45L1919 1108.61V1074.07L1859 1108.61Z" fill="white" stroke="#1A353C" stroke-width="4" stroke-miterlimit="10"/>
        <path d="M1949 1056.61V1091.45L2009 1056.61V1022.07L1949 1056.61Z" fill="white" stroke="#1A353C" stroke-width="4" stroke-miterlimit="10"/>
        <path d="M1796 1039.31V1074.14L1736 1039.31V1004.77L1796 1039.31Z" fill="white"/>
        <path d="M1706 987.31V1022.14L1646 987.31V952.77L1706 987.31Z" fill="white"/>
        <path d="M1796 1109.31V1144.14L1736 1109.31V1074.77L1796 1109.31Z" fill="white"/>
        <path d="M1706 1057.31V1092.14L1646 1057.31V1022.77L1706 1057.31Z" fill="white"/>
        <path d="M1797 1178.81V1213.64L1737 1178.81V1144.26L1797 1178.81Z" fill="white"/>
        <path d="M1707 1126.81V1161.64L1647 1126.81V1092.26L1707 1126.81Z" fill="white"/>
        <path d="M1706 1022L1646 987.64V953" fill="white"/>
        <path d="M1706 1022L1646 987.64V953" stroke="#001B22" stroke-width="4" stroke-miterlimit="10"/>
        <path d="M1707 1092L1647 1057.64V1023" fill="white"/>
        <path d="M1707 1092L1647 1057.64V1023" stroke="#001B22" stroke-width="4" stroke-miterlimit="10"/>
        <path d="M1707 1161L1647 1126.64V1092" fill="white"/>
        <path d="M1707 1161L1647 1126.64V1092" stroke="#001B22" stroke-width="4" stroke-miterlimit="10"/>
        <path d="M1797 1213L1737 1178.64V1144" fill="white"/>
        <path d="M1797 1213L1737 1178.64V1144" stroke="#001B22" stroke-width="4" stroke-miterlimit="10"/>
        <path d="M1797 1144L1737 1109.64V1075" fill="white"/>
        <path d="M1797 1144L1737 1109.64V1075" stroke="#001B22" stroke-width="4" stroke-miterlimit="10"/>
        <path d="M1797 1074L1737 1039.64V1005" fill="white"/>
        <path d="M1797 1074L1737 1039.64V1005" stroke="#001B22" stroke-width="4" stroke-miterlimit="10"/>
        <path d="M1303.84 944.18C1301.34 945.707 1298.44 946.436 1295.52 946.27C1292.2 945.85 1289.01 944.707 1286.18 942.92C1284.22 941.904 1282.44 940.569 1280.91 938.97C1280.47 938.554 1280.17 938.009 1280.05 937.413C1279.94 936.817 1280.01 936.2 1280.27 935.65C1280.84 934.556 1282.2 933.396 1284.34 932.17C1286.01 931.17 1288.41 929.92 1291.56 928.3L1289.93 927.36C1288.34 926.37 1286.63 925.587 1284.84 925.03C1283.71 924.688 1282.5 924.688 1281.37 925.03C1279.84 925.561 1278.36 926.258 1276.98 927.11C1275.1 928.196 1272.77 929.75 1269.98 931.77L1264.43 928.57C1267.04 926.221 1269.91 924.166 1272.97 922.44C1275.54 920.85 1278.35 919.707 1281.3 919.06C1283.74 918.602 1286.25 918.753 1288.62 919.5C1291.7 920.484 1294.66 921.826 1297.43 923.5L1318.03 935.4L1311.47 939.19L1307.1 936.97L1306.71 937.2C1308.73 939.573 1307.77 941.9 1303.84 944.18ZM1300.53 938.71C1301.21 938.344 1301.83 937.883 1302.37 937.34C1302.56 937.149 1302.7 936.916 1302.78 936.661C1302.86 936.405 1302.88 936.134 1302.83 935.87C1302.62 935.036 1301.1 933.806 1298.28 932.18L1296.52 931.18L1291.59 934.02C1290.89 934.369 1290.26 934.859 1289.76 935.46C1289.65 935.671 1289.62 935.911 1289.67 936.142C1289.71 936.374 1289.83 936.584 1290.01 936.74C1290.78 937.44 1291.63 938.038 1292.55 938.52C1293.79 939.33 1295.19 939.856 1296.66 940.06C1298.05 939.953 1299.38 939.488 1300.53 938.71V938.71ZM1291.53 912.26L1298.03 908.51L1303.96 911.63L1304.42 911.36C1302.73 909.626 1302.08 908.143 1302.49 906.91C1302.9 905.676 1304.14 904.43 1306.23 903.17L1313.73 907.5C1311.73 908.66 1310.48 909.78 1309.99 910.86C1309.5 911.95 1309.78 913.09 1310.82 914.3C1312.5 915.99 1314.44 917.413 1316.55 918.52L1331.87 927.36L1324.79 931.45L1291.53 912.26ZM1367.99 921.57C1366.42 922.48 1364.74 923.37 1362.99 924.26C1361.24 925.15 1359.76 925.8 1358.53 926.26L1352.86 922.99C1355.57 921.52 1358.04 920.15 1360.28 918.86C1362.52 917.57 1363.71 916.63 1364.15 915.86C1364.59 915.09 1364.4 914.29 1363.44 913.48C1361.73 912.107 1359.9 910.898 1357.97 909.87L1355.82 908.62L1355.36 908.89C1357.36 911.096 1356.41 913.326 1352.51 915.58C1350.49 916.832 1348.2 917.586 1345.83 917.78C1343.61 917.829 1341.41 917.41 1339.36 916.55C1336.33 915.208 1333.39 913.685 1330.55 911.99L1311.25 900.85L1318.34 896.76L1336.4 907.19C1339.4 908.923 1341.55 910.09 1342.86 910.69C1343.87 911.183 1344.99 911.414 1346.12 911.36C1347.26 911.107 1348.35 910.657 1349.34 910.03C1350.73 909.23 1351.46 908.48 1351.51 907.8C1351.56 907.12 1351.08 906.34 1349.95 905.54C1348.02 904.174 1346.02 902.915 1343.95 901.77L1326.8 891.87L1333.89 887.78L1363 904.62C1366.35 906.426 1369.52 908.56 1372.45 910.99C1374.27 912.59 1374.92 914.23 1374.38 915.89C1373.84 917.55 1371.71 919.45 1368 921.57H1367.99ZM1389.65 894L1373.06 890.33L1372.6 890.59L1378.83 900.25L1371.54 904.45L1362.92 890L1338.49 885.21L1346.1 880.82L1361.97 884.22L1362.37 884L1356.37 874.87L1363.72 870.63L1372.08 884.7L1397.23 889.7L1389.65 894ZM1412.23 881.56C1409.38 883.358 1406.22 884.619 1402.92 885.28C1400.21 885.643 1397.46 885.298 1394.92 884.28C1390.94 882.584 1387.08 880.613 1383.38 878.38C1379.77 876.42 1376.33 874.176 1373.08 871.67C1371.3 870.09 1370.76 868.57 1371.47 867.11C1372.18 865.65 1374.32 863.856 1377.91 861.73C1380.76 859.941 1383.91 858.681 1387.21 858.01C1389.87 857.631 1392.58 857.977 1395.06 859.01C1399.09 860.684 1402.99 862.66 1406.73 864.92C1410.31 866.853 1413.71 869.095 1416.9 871.62C1418.72 873.18 1419.3 874.703 1418.64 876.19C1417.98 877.676 1415.84 879.476 1412.23 881.59V881.56ZM1406.17 878.06C1407.74 877.15 1408.6 876.41 1408.73 875.83C1408.86 875.25 1408.3 874.45 1407.04 873.57C1405.78 872.69 1403.37 871.14 1399.68 869.01C1395.99 866.88 1393.31 865.44 1391.79 864.76C1390.61 864.11 1389.28 863.786 1387.93 863.82C1386.53 863.994 1385.18 864.486 1384 865.26C1382.43 866.17 1381.57 866.94 1381.44 867.57C1381.31 868.2 1381.84 868.89 1383.06 869.8C1384.28 870.71 1386.75 872.16 1390.49 874.32C1394.23 876.48 1396.79 877.88 1398.32 878.61C1399.53 879.236 1400.87 879.578 1402.24 879.61C1403.64 879.375 1404.98 878.858 1406.17 878.09V878.06Z" fill="#334B51"/>
        <path fill-rule="evenodd" clip-rule="evenodd" d="M1226.69 988.12L1166.92 953.61L1227.06 918.88L1286.83 953.39L1262.73 967.31L1247.47 962.21L1238.75 967.21L1247.35 976.15L1238.63 981.15L1206.03 947.75L1213.6 943.38L1262.12 959L1271.53 953.57L1227.21 928L1182.68 953.71L1234.49 983.63L1226.69 988.12ZM1232.17 961.86L1237.91 958.54L1225.84 955L1232.17 961.86Z" fill="#334B51"/>
        <path d="M1900.09 597.03L1811.73 648.04V546.66L1900.63 495.33L1900.09 597.03Z" fill="#E6E6E6"/>
        <path d="M1811.73 648.04L1752.83 614.03V512.01L1811.73 546.66V648.04Z" fill="#CCCCCC"/>
        <path d="M1752.83 512.01L1841.18 461L1900.63 495.33L1811.73 546.66L1752.83 512.01Z" fill="#F2F2F2"/>
        <path d="M1789.68 510.38L1819.14 527.39V510.38L1789.68 493.38V510.38Z" fill="#CCCCCC"/>
        <path d="M1819.14 527.39L1863.31 501.88V484.88L1819.14 510.38V527.39Z" fill="#E6E6E6"/>
        <path d="M1844.66 629.1V578.04L1874.11 561.14V612.05L1844.66 629.1Z" fill="#CCCCCC"/>
        <path d="M536.92 2183.34L4016.92 174.16V589.85L896.92 2391.18L536.92 2183.34Z" fill="#1A353C"/>
        <path d="M716.92 2287.26L4016.92 382" stroke="white" stroke-width="4" stroke-miterlimit="10" stroke-dasharray="24 24"/>
        <path d="M1826.91 1299.98L1946.91 1369.26L2156.92 1248.03L2036.92 1178.75L1826.91 1299.98Z" fill="#1A353C"/>
        <path d="M1046.92 1819.61L1136.92 1767.64L1196.92 1802.29L1106.92 1854.25L1046.92 1819.61Z" fill="#1A353C"/>
        <path d="M1376.92 1629.08L1466.92 1577.12L1526.92 1611.76L1436.92 1663.72L1376.92 1629.08Z" fill="#1A353C"/>
        <path d="M1136.92 1767.64L1376.92 1629.08L1436.92 1663.72L1196.92 1802.29L1136.92 1767.64Z" fill="#334B51"/>
        <path d="M1496.92 1594.44L1586.92 1542.48L1526.92 1507.84L1556.92 1490.52L1526.92 1473.2L1496.92 1455.88L1466.92 1473.2L1436.92 1455.88L1406.92 1438.56L1466.92 1403.91L1436.92 1386.59L1406.92 1369.27L1376.92 1386.59L1346.92 1369.27L1316.92 1386.59L1286.92 1369.27L1256.92 1351.95L1286.92 1334.63L1226.92 1299.99L1166.92 1334.63L1136.92 1317.31L1106.92 1299.99L1016.92 1248.03L1046.92 1230.71L1106.92 1196.07V1161.43V1092.14L1046.92 1126.79L1016.92 1144.11L986.92 1126.79L956.92 1144.11L986.92 1161.43L956.92 1178.75L926.92 1196.07L956.92 1213.39L866.92 1265.35L806.92 1299.99L1136.92 1490.52L1256.92 1421.23L1286.92 1403.91L1496.92 1525.16L1527 1542.43L1466.92 1577.12L1496.92 1594.44Z" fill="#334B51"/>
        <path d="M1046.92 1438.56L1016.92 1455.88L1046.92 1473.2L926.92 1542.48L896.92 1525.16L836.92 1559.8L866.92 1577.12L836.92 1594.44L866.92 1611.76L686.92 1715.68L986.92 1888.89L1076.92 1836.93L1046.92 1819.61L986.92 1854.25L746.92 1715.68L1136.92 1490.52L1046.92 1438.56Z" fill="#334B51"/>
        <path d="M1046.92 1265.35L1106.92 1230.71L1226.88 1300.12L1166.92 1334.63L1046.92 1265.35Z" fill="#1A353C"/>
        <path d="M746.92 1715.68L1286.92 1403.91L1527 1542.43L986.92 1854.25L746.92 1715.68Z" fill="#1A353C"/>
        <path d="M1255.92 1455.63L1435 1559.03L1015.92 1802.04L835.92 1698.12L1255.92 1455.63Z" fill="#379761"/>
        <path d="M883 1689L1243 1481L1393 1568L1033 1776L883 1689Z" fill="#379761" stroke="white" stroke-width="2" stroke-miterlimit="10"/>
        <path d="M1213.13 1671.92L1062.79 1585.12V1515.87L1213.13 1602.64V1671.92Z" stroke="white" stroke-width="2" stroke-miterlimit="10"/>
        <path d="M1228.49 1541.24L1286.49 1507.24L1347.49 1541.97L1288.49 1576.24L1228.49 1541.24Z" stroke="white" stroke-width="2" stroke-miterlimit="10"/>
        <path d="M928 1714L986 1680L1047 1714.73L988 1749L928 1714Z" stroke="white" stroke-width="2" stroke-miterlimit="10"/>
        <path d="M1106.92 1230.71L986.92 1299.99L1316.92 1351.95L1106.92 1230.71Z" fill="url(#paint0_linear_2:435)"/>
        <path d="M1617.47 1179.05L1497.47 1248.33L1826.92 1299.99L1617.47 1179.05Z" fill="url(#paint1_linear_2:435)"/>
        <path d="M1752.83 614.03L1719.22 633.17L1812 648L1752.83 614.03Z" fill="url(#paint2_linear_2:435)"/>
        <path d="M1617.09 1540.61C1630.96 1540.61 1642.21 1536.46 1642.21 1531.34C1642.21 1526.22 1630.96 1522.07 1617.09 1522.07C1603.22 1522.07 1591.97 1526.22 1591.97 1531.34C1591.97 1536.46 1603.22 1540.61 1617.09 1540.61Z" fill="url(#paint3_linear_2:435)"/>
        <path d="M1616.69 1504.24V1532.08L1623.68 1529.29V1493.16L1616.69 1490.37V1504.24Z" fill="#001B22"/>
        <path d="M1616.92 1504.39V1532.24L1609.92 1529.44V1493.31L1616.92 1490.52V1504.39Z" fill="#001B22"/>
        <path d="M1598.85 1417.85L1581.15 1490.51L1616.92 1511.16L1617.04 1428.35L1598.85 1417.85Z" fill="#006836"/>
        <path d="M1634.98 1417.99L1617.04 1428.35L1616.92 1511.16L1652.93 1490.51L1634.98 1417.99Z" fill="#2E9960"/>
        <path d="M1617.04 1407.63L1598.85 1417.85L1617.04 1428.35L1634.98 1417.99L1617.04 1407.63Z" fill="#8ABC92"/>
        <path d="M1073.08 1464.31C1096.28 1464.31 1115.08 1457.37 1115.08 1448.81C1115.08 1440.25 1096.28 1433.31 1073.08 1433.31C1049.88 1433.31 1031.08 1440.25 1031.08 1448.81C1031.08 1457.37 1049.88 1464.31 1073.08 1464.31Z" fill="url(#paint4_linear_2:435)"/>
        <path d="M1072.42 1403.51V1450.06L1084.11 1445.38V1384.99L1072.42 1380.31V1403.51Z" fill="#001B22"/>
        <path d="M1072.8 1403.76V1450.31L1061.11 1445.64V1385.24L1072.8 1380.57V1403.76Z" fill="#001B22"/>
        <path d="M1042.6 1259.08L1013 1380.56L1072.8 1415.08L1073 1276.64L1042.6 1259.08Z" fill="#006836"/>
        <path d="M1103 1259.32L1073 1276.64L1072.8 1415.08L1133 1380.56L1103 1259.32Z" fill="#2E9960"/>
        <path d="M1073 1242L1042.6 1259.08L1073 1276.64L1103 1259.32L1073 1242Z" fill="#8ABC92"/>
        <path d="M1002.08 1177.32C1025.28 1177.32 1044.08 1170.38 1044.08 1161.82C1044.08 1153.26 1025.28 1146.32 1002.08 1146.32C978.884 1146.32 960.08 1153.26 960.08 1161.82C960.08 1170.38 978.884 1177.32 1002.08 1177.32Z" fill="url(#paint5_linear_2:435)"/>
        <path d="M1001.42 1116.51V1163.06L1013.11 1158.39V1097.99L1001.42 1093.32V1116.51Z" fill="#001B22"/>
        <path d="M1001.8 1116.77V1163.32L990.11 1158.64V1098.25L1001.8 1093.57V1116.77Z" fill="#001B22"/>
        <path d="M971.6 972.09L942 1093.56L1001.8 1128.09L1002 989.64L971.6 972.09Z" fill="#006836"/>
        <path d="M1032 972.32L1002 989.64L1001.8 1128.09L1062 1093.56L1032 972.32Z" fill="#2E9960"/>
        <path d="M1002 955L971.6 972.09L1002 989.64L1032 972.32L1002 955Z" fill="#8ABC92"/>
        <path d="M657.38 1706.99C671.253 1706.99 682.5 1702.84 682.5 1697.72C682.5 1692.6 671.253 1688.45 657.38 1688.45C643.507 1688.45 632.26 1692.6 632.26 1697.72C632.26 1702.84 643.507 1706.99 657.38 1706.99Z" fill="url(#paint6_linear_2:435)"/>
        <path d="M656.99 1670.63V1698.47L663.98 1695.67V1659.55L656.99 1656.75V1670.63Z" fill="#001B22"/>
        <path d="M657.22 1670.78V1698.62L650.22 1695.82V1659.7L657.22 1656.9V1670.78Z" fill="#001B22"/>
        <path d="M639.15 1584.24L621.45 1656.9L657.22 1677.55L657.34 1594.74L639.15 1584.24Z" fill="#006836"/>
        <path d="M675.28 1584.38L657.34 1594.74L657.22 1677.55L693.23 1656.9L675.28 1584.38Z" fill="#2E9960"/>
        <path d="M657.34 1574.02L639.15 1584.24L657.34 1594.74L675.28 1584.38L657.34 1574.02Z" fill="#8ABC92"/>
        <path d="M2066.99 1022.86L2396.99 832.33L2576.99 936.25L2216.99 1144.1L2036.98 1040.17L2066.99 1022.86Z" fill="#0FBCBE"/>
        <path d="M2036.98 1040.17L2396.99 832.33L2576.99 936.25L2546.99 953.57L2396.99 866.97L2066.99 1057.5L2036.98 1040.17Z" fill="#4B7784"/>
        <path d="M2096.92 1109.47L2126.92 1126.79L2066.92 1161.43L2096.92 1178.75L2066.92 1196.07L2126.92 1230.71L2186.92 1196.07L2156.92 1178.75L2186.92 1161.43L2156.92 1144.11L2186.92 1126.79L2126.92 1092.14L2096.92 1109.47Z" fill="#1A353C"/>
        <path d="M2156.92 1144.11L2246.92 1196.07L2696.92 936.26L2576.92 866.98L2726.92 780.38L2666.92 745.74L2516.92 832.34L2426.92 780.38L2276.92 866.98L2126.92 780.38V849.66L2216.92 901.62L2036.92 1005.54V1040.17V1074.83L2096.92 1109.47L2126.92 1092.14L2036.92 1040.17L2066.99 1022.85L2246.92 918.94L2396.99 832.33L2576.99 936.25L2216.99 1144.1L2186.92 1126.79L2156.92 1144.11Z" fill="#1A353C"/>
        <path d="M2126.92 780.38V849.66L2216.92 901.62L2276.92 866.98L2126.92 780.38Z" fill="#334B51"/>
        <path d="M2638.79 948.1C2652.66 948.1 2663.91 943.95 2663.91 938.83C2663.91 933.71 2652.66 929.56 2638.79 929.56C2624.92 929.56 2613.67 933.71 2613.67 938.83C2613.67 943.95 2624.92 948.1 2638.79 948.1Z" fill="url(#paint7_linear_2:435)"/>
        <path d="M2638.39 911.73V939.58L2645.39 936.78V900.65L2638.39 897.86V911.73Z" fill="#001B22"/>
        <path d="M2638.62 911.89V939.73L2631.63 936.93V900.81L2638.62 898.01V911.89Z" fill="#001B22"/>
        <path d="M2620.56 825.35L2602.85 898.01L2638.62 918.66L2638.74 835.85L2620.56 825.35Z" fill="#006836"/>
        <path d="M2656.69 825.49L2638.74 835.85L2638.62 918.66L2674.63 898.01L2656.69 825.49Z" fill="#2E9960"/>
        <path d="M2638.74 815.12L2620.56 825.35L2638.74 835.85L2656.69 825.49L2638.74 815.12Z" fill="#8ABC92"/>
        <path d="M1976.92 1836.93L1886.99 1888.82L1886.92 1784.97L1976.92 1733V1836.93Z" fill="#E6E6E6"/>
        <path d="M1886.99 1888.82L1826.92 1854.25V1750.33L1886.92 1784.97L1886.99 1888.82Z" fill="#CCCCCC"/>
        <path d="M1826.92 1750.33L1916.92 1698.36L1976.92 1733L1886.92 1784.97L1826.92 1750.33Z" fill="#F2F2F2"/>
        <path d="M1864.94 1751.16L1894.39 1768.16V1751.16L1864.94 1734.15V1751.16Z" fill="#CCCCCC"/>
        <path d="M1894.39 1768.16L1938.57 1742.65V1725.65L1894.39 1751.16V1768.16Z" fill="#E6E6E6"/>
        <path d="M1827.04 1854.67L1792.66 1874.39L1887.2 1889.18L1827.04 1854.67Z" fill="url(#paint8_linear_2:435)"/>
        <path d="M2186.92 1646.4L2420.58 1781.31L2606.92 1888.89L2666.92 1854.25L2726.92 1888.89L2786.92 1854.25L2726.92 1819.61L2846.92 1750.33L2816.92 1733L2936.92 1663.72L2786.92 1577.12L2906.92 1507.84L2756.92 1421.23L2636.92 1490.52L2546.92 1438.56L2186.92 1646.4Z" fill="#334B51"/>
        <path d="M2306.92 1577.12V1681.04L2486.92 1784.97V1681.04L2306.92 1577.12Z" fill="#CCCCCC"/>
        <path d="M2486.92 1681.04L2576.92 1629.08V1733L2486.92 1784.97V1681.04Z" fill="#E6E6E6"/>
        <path d="M2306.92 1577.12L2396.92 1525.16L2576.92 1629.08L2486.92 1681.04L2306.92 1577.12Z" fill="#F2F2F2"/>
        <path d="M2396.92 1629.08V1733" stroke="#B3B3B3" stroke-width="4" stroke-miterlimit="10"/>
        <path d="M2486.92 1577.12L2396.92 1629.08" stroke="#E6E6E6" stroke-width="4" stroke-miterlimit="10"/>
        <path d="M2666.92 1681.04L2667.01 1785.4L2785.92 1716.68L2786.92 1611.76L2666.92 1681.04Z" fill="#E6E6E6"/>
        <path d="M2667.01 1785.4L2577.01 1733.44L2576.92 1629.08L2666.92 1681.04L2667.01 1785.4Z" fill="#CCCCCC"/>
        <path d="M2576.92 1629.08L2697.92 1558.8L2786.92 1611.76L2666.92 1681.04L2576.92 1629.08Z" fill="#F2F2F2"/>
        <path d="M2306.82 1681.2L2216.92 1733L2486.92 1784.97L2306.82 1681.2Z" fill="url(#paint9_linear_2:435)"/>
        <path d="M2576.35 1733.36L2516.92 1767.64L2667.01 1785.4" fill="url(#paint10_linear_2:435)"/>
        <path d="M2727.27 1863.49C2741.14 1863.49 2752.39 1859.34 2752.39 1854.22C2752.39 1849.1 2741.14 1844.95 2727.27 1844.95C2713.4 1844.95 2702.15 1849.1 2702.15 1854.22C2702.15 1859.34 2713.4 1863.49 2727.27 1863.49Z" fill="url(#paint11_linear_2:435)"/>
        <path d="M2726.87 1827.12V1854.96L2733.87 1852.17V1816.04L2726.87 1813.25V1827.12Z" fill="#001B22"/>
        <path d="M2727.1 1827.27V1855.12L2720.11 1852.32V1816.19L2727.1 1813.4V1827.27Z" fill="#001B22"/>
        <path d="M2709.04 1740.73L2691.33 1813.39L2727.1 1834.05L2727.22 1751.23L2709.04 1740.73Z" fill="#006836"/>
        <path d="M2745.17 1740.87L2727.22 1751.23L2727.1 1834.05L2763.11 1813.39L2745.17 1740.87Z" fill="#2E9960"/>
        <path d="M2727.22 1730.51L2709.04 1740.73L2727.22 1751.23L2745.17 1740.87L2727.22 1730.51Z" fill="#8ABC92"/>
        <path d="M2756.32 1485.55C2779.52 1485.55 2798.32 1478.61 2798.32 1470.05C2798.32 1461.49 2779.52 1454.55 2756.32 1454.55C2733.12 1454.55 2714.32 1461.49 2714.32 1470.05C2714.32 1478.61 2733.12 1485.55 2756.32 1485.55Z" fill="url(#paint12_linear_2:435)"/>
        <path d="M2755.66 1424.74V1471.29L2767.35 1466.62V1406.22L2755.66 1401.55V1424.74Z" fill="#001B22"/>
        <path d="M2756.04 1425V1471.55L2744.35 1466.87V1406.47L2756.04 1401.8V1425Z" fill="#001B22"/>
        <path d="M2725.84 1280.32L2696.24 1401.79L2756.04 1436.32L2756.24 1297.87L2725.84 1280.32Z" fill="#006836"/>
        <path d="M2786.24 1280.55L2756.24 1297.87L2756.04 1436.32L2816.24 1401.79L2786.24 1280.55Z" fill="#2E9960"/>
        <path d="M2756.24 1263.23L2725.84 1280.32L2756.24 1297.87L2786.24 1280.55L2756.24 1263.23Z" fill="#8ABC92"/>
        <path d="M266.99 1438.47V1230.63L386.99 1299.91V1507.75L266.99 1438.47Z" fill="#1A353C"/>
        <path d="M266.99 1438.47V1473.11L386.99 1542.39V1507.75L266.99 1438.47Z" fill="#001B22"/>
        <path d="M386.99 1299.91L596.99 1178.66V1386.51L386.99 1507.75V1299.91Z" fill="#334B51"/>
        <path d="M386.99 1542.39L596.99 1421.15V1386.51L386.99 1507.75V1542.39Z" fill="#1A353C"/>
        <path d="M266.99 1230.63L476.99 1109.38L596.99 1178.66L386.99 1299.91L266.99 1230.63Z" fill="#4D6267"/>
        <path d="M296.99 1282.59V1317.23L356.99 1351.87V1317.23L296.99 1282.59Z" fill="white"/>
        <path d="M296.99 1351.87L297.02 1421.06L357.02 1455.7L356.99 1386.51L296.99 1351.87Z" fill="white"/>
        <path d="M296.99 1282.59V1317.23L356.99 1351.87" fill="white"/>
        <path d="M296.99 1282.59V1317.23L356.99 1351.87" stroke="#001B22" stroke-width="4" stroke-miterlimit="10"/>
        <path d="M296.99 1351.87L297.15 1420.85L357.15 1455.49" fill="white"/>
        <path d="M296.99 1351.87L297.15 1420.85L357.15 1455.49" stroke="#001B22" stroke-width="4" stroke-miterlimit="10"/>
        <path d="M446.92 1473.2L446.9 1369.36L566.92 1438.56V1542.48L446.92 1473.2Z" fill="#1A353C"/>
        <path d="M566.92 1438.56L686.92 1369.28V1473.2L566.92 1542.48V1438.56Z" fill="#334B51"/>
        <path d="M447.26 1369.3L567.28 1299.94L686.92 1369.28L566.92 1438.56L447.26 1369.3Z" fill="#4D6267"/>
        <path d="M446.92 1473.2V1507.84L566.92 1577.13V1542.48L446.92 1473.2Z" fill="#001B22"/>
        <path d="M566.92 1577.13L686.92 1507.84V1473.2L566.92 1542.48V1577.13Z" fill="#1A353C"/>
        <path d="M476.92 1421.24V1455.88L536.92 1490.52V1455.88L476.92 1421.24Z" fill="white"/>
        <path d="M476.92 1421.24L477.85 1455.92L536.92 1490.52" fill="white"/>
        <path d="M476.92 1421.24L477.85 1455.92L536.92 1490.52" stroke="#001B22" stroke-width="4" stroke-miterlimit="10"/>
        <path d="M836.98 1559.84L686.92 1473.2L686.98 1403.96L836.98 1317.36L896.98 1352L806.98 1403.96L866.98 1438.6L836.98 1455.92L866.98 1473.24L836.98 1490.56L896.98 1525.2L836.98 1559.84Z" fill="#1A353C"/>
        <path d="M746.92 1369.27L686.92 1334.63L656.92 1317.31L626.92 1334.63L686.92 1369.28L686.98 1403.96L746.92 1369.27Z" fill="#1A353C"/>
        <path d="M626.92 1126.79L596.92 1144.11L626.92 1161.43L686.92 1196.07L656.92 1213.39L716.92 1248.03L596.92 1317.31L626.92 1334.63L656.92 1351.95L806.92 1265.35L836.92 1282.67L896.92 1248.03L776.92 1178.75L746.92 1196.07L686.92 1161.43L626.92 1126.79Z" fill="#1A353C"/>
        <path d="M806.92 1299.99L836.92 1282.67L806.92 1265.35L686.92 1334.63L746.92 1369.27L806.92 1334.63L836.92 1351.95L866.92 1334.63L806.92 1299.99Z" fill="#334B51"/>
        <path d="M2606.87 607.23V711.15L2786.87 815.07V711.15L2606.87 607.23Z" fill="#CCCCCC"/>
        <path d="M2786.87 711.15L2876.87 659.19V763.11L2786.87 815.07V711.15Z" fill="#E6E6E6"/>
        <path d="M2606.87 607.23L2696.87 555.26L2876.87 659.19L2786.87 711.15L2606.87 607.23Z" fill="#F2F2F2"/>
        <path d="M2696.87 659.19V763.11" stroke="#B3B3B3" stroke-width="4" stroke-miterlimit="10"/>
        <path d="M2786.87 607.22L2696.87 659.19" stroke="#E6E6E6" stroke-width="4" stroke-miterlimit="10"/>
        <path d="M2606.78 711.3L2516.87 763.11L2786.87 815.07L2606.78 711.3Z" fill="url(#paint13_linear_2:435)"/>
        <path d="M266.99 1473.11L206.92 1507.84L386.99 1542.39L266.99 1473.11Z" fill="url(#paint14_linear_2:435)"/>
        <path d="M446.92 1507.84L386.99 1542.39L566.92 1577.13L446.92 1507.84Z" fill="url(#paint15_linear_2:435)"/>
        <path d="M596.92 1109.47L536.92 1144.11L716.92 1178.75L596.92 1109.47Z" fill="url(#paint16_linear_2:435)"/>
        <path d="M1016.89 624.32L926.88 676.39L1226.88 745.67L1016.89 624.32Z" fill="url(#paint17_linear_2:435)"/>
        <path d="M596.38 1075.04V867.2L716.38 936.48V1144.33L596.38 1075.04Z" fill="#1A353C"/>
        <path d="M596.38 1075.04L596.92 1109.47L716.92 1178.75L716.38 1144.33L596.38 1075.04Z" fill="#001B22"/>
        <path d="M716.38 936.48L926.38 815.24V1023.08L716.38 1144.33V936.48Z" fill="#334B51"/>
        <path d="M716.92 1178.75L926.38 1057.72V1023.08L716.38 1144.33L716.92 1178.75Z" fill="#1A353C"/>
        <path d="M596.38 867.2L806.38 745.95L926.38 815.24L716.38 936.48L596.38 867.2Z" fill="#4D6267"/>
        <path d="M626.38 919.16V953.8L686.38 988.44V953.8L626.38 919.16Z" fill="white"/>
        <path d="M626.92 988.22V1092.14L686.92 1126.79V1022.86L626.92 988.22Z" fill="white"/>
        <path d="M626.38 919.16V953.8L686.38 988.44" fill="white"/>
        <path d="M626.38 919.16V953.8L686.38 988.44" stroke="#001B22" stroke-width="4" stroke-miterlimit="10"/>
        <path d="M626.92 988.22V1092.14L686.92 1126.79" fill="white"/>
        <path d="M626.92 988.22V1092.14L686.92 1126.79" stroke="#001B22" stroke-width="4" stroke-miterlimit="10"/>
        <path d="M438 1191.54C438 1191.54 426.73 1186.3 416.29 1192C405.85 1197.7 408.54 1205.29 419.85 1211.81C431.16 1218.33 445.96 1220.23 455.85 1214.52C465.74 1208.81 455.53 1201.66 455.53 1201.66L475.6 1191.37C475.6 1191.37 486.93 1196.62 486.79 1205.7C486.65 1214.78 478.19 1221.12 471.34 1225.02C464.49 1228.92 455.23 1234.44 436.85 1234.35C418.47 1234.26 407.91 1229.94 399.07 1224.84C390.23 1219.74 380.22 1211.96 382.17 1200.57C383.49 1192.84 388.72 1187.24 396.17 1182.93C427.33 1164.93 457.98 1180.22 457.98 1180.22L438 1191.54Z" fill="#334B51"/>
        <path d="M826.41 832.62C825.89 831.544 825.057 830.652 824.02 830.06L785.91 808.06C784.527 807.341 783.027 806.873 781.48 806.68L764.8 842.25L826.41 832.62Z" fill="#334B51"/>
        <path d="M812.37 865.71L826.53 835.53C826.722 835.065 826.811 834.564 826.79 834.061C826.769 833.559 826.64 833.067 826.41 832.62L764.8 842.25L748.11 877.83C749.765 878.093 751.448 878.116 753.11 877.9L805.38 869.72C808.43 869.25 811.56 867.45 812.37 865.71Z" fill="#334B51"/>
        <path d="M781.48 806.68C779.826 806.412 778.141 806.388 776.48 806.61L724.21 814.78C721.21 815.25 718.07 817.06 717.26 818.78L703.06 849C702.24 850.74 703.37 853.2 705.57 854.47L743.68 876.47C745.067 877.18 746.565 877.647 748.11 877.85L764.8 842.27L781.48 806.68Z" fill="#334B51"/>
        <path d="M791.41 857.62C776.64 866.15 752.69 866.19 738.01 857.72C723.33 849.25 723.41 835.41 738.18 826.89C747.71 821.39 761.69 819.2 774.67 821.18L769.75 831.72C763.25 830.72 756.25 831.82 751.49 834.57C744.1 838.83 744.07 845.75 751.4 849.99C758.73 854.23 770.72 854.2 778.1 849.99C782.87 847.24 784.76 843.2 783.05 839.44L801.3 836.6C804.73 844 800.94 852.12 791.41 857.62Z" fill="#4D6267"/>
        <path d="M790.1 825.94L787.12 827.66L784.16 825.95L781.19 827.67L784.15 829.37L781.17 831.09L784.13 832.8L787.1 831.08L790.06 832.79L793.04 831.07L790.08 829.36L793.05 827.64L790.1 825.94Z" fill="#4D6267"/>
        <path d="M801.26 819.5L798.28 821.21L795.32 819.51L792.35 821.22L795.31 822.93L792.33 824.65L795.29 826.36L798.26 824.64L801.22 826.35L804.2 824.63L801.24 822.92L804.21 821.2L801.26 819.5Z" fill="#4D6267"/>
        <path d="M1226.88 468.54L1436.88 347.3V589.79L1226.88 711.03V468.54Z" fill="#334B51"/>
        <path d="M1226.88 468.54L1016.88 347.3V589.79L1226.88 711.03V468.54Z" fill="#1A353C"/>
        <path d="M1016.88 347.3L1226.88 226.06L1436.88 347.3L1226.88 468.54L1016.88 347.3Z" fill="#4D6267"/>
        <path d="M1016.88 589.79V624.43L1226.88 745.67V711.03L1016.88 589.79Z" fill="#001B22"/>
        <path d="M1436.88 589.79V624.43L1226.88 745.67V711.03L1436.88 589.79Z" fill="#1A353C"/>
        <path d="M1256.92 693.77V624.49L1406.92 537.89V607.17L1256.92 693.77Z" fill="white" stroke="#1A353C" stroke-width="4" stroke-miterlimit="10"/>
        <path d="M1256.92 485.93V520.57L1406.92 433.97V399.32L1256.92 485.93Z" fill="white" stroke="#1A353C" stroke-width="4" stroke-miterlimit="10"/>
        <path d="M1046.92 399.32V433.97L1076.92 451.29V416.65L1046.92 399.32Z" fill="white"/>
        <path d="M1106.92 433.97V468.61L1136.92 485.93V451.29L1106.92 433.97Z" fill="white"/>
        <path d="M1166.92 468.61V503.25L1196.92 520.57V485.93L1166.92 468.61Z" fill="white"/>
        <path d="M1196.92 485.93L1166.92 468.61V503.25" fill="white"/>
        <path d="M1166.8 537.72V572.36L1196.8 589.68V555.04L1166.8 537.72Z" fill="white"/>
        <path d="M1046.8 468.44V503.08L1076.8 520.4V485.76L1046.8 468.44Z" fill="white"/>
        <path d="M1106.8 503.08V537.72L1136.8 555.04V520.4L1106.8 503.08Z" fill="white"/>
        <path d="M1196.8 555.04L1166.8 537.72V572.36" fill="white"/>
        <path d="M1166.89 607.12V641.76L1196.89 659.08V624.44L1166.89 607.12Z" fill="white"/>
        <path d="M1046.89 537.84V572.48L1076.89 589.8V555.16L1046.89 537.84Z" fill="white"/>
        <path d="M1106.89 572.48V607.12L1136.89 624.44V589.8L1106.89 572.48Z" fill="white"/>
        <path d="M1196.89 624.44L1166.89 607.12V641.76" fill="white"/>
        <path d="M1256.92 728.41L1316.92 763.06L1196.92 832.34L1256.92 866.98L1616.92 659.13L1526.92 607.17L1466.92 641.81L1436.88 624.43L1256.92 728.41Z" fill="#334B51"/>
        <path d="M1226.88 745.67L1256.92 763.06L1196.92 797.7L1226.92 815.02L1316.92 763.06L1256.92 728.41L1226.88 745.67Z" fill="#1A353C"/>
        <path d="M1436.88 624.43L1526.92 572.53L1586.92 607.17L1616.92 589.85L1646.92 607.17L1676.92 589.85L1706.92 607.17L1616.92 659.13L1526.92 607.17L1466.92 641.81L1436.88 624.43Z" fill="#1A353C"/>
        <path d="M746.92 953.58V988.22L776.92 970.9V936.26L746.92 953.58Z" fill="white" stroke="#1A353C" stroke-width="4" stroke-miterlimit="10"/>
        <path d="M806.92 918.94V953.58L836.92 936.26V901.62L806.92 918.94Z" fill="white" stroke="#1A353C" stroke-width="4" stroke-miterlimit="10"/>
        <path d="M866.92 884.3V918.94L896.92 901.62V866.98L866.92 884.3Z" fill="white" stroke="#1A353C" stroke-width="4" stroke-miterlimit="10"/>
        <path d="M746.84 1022.89L746.92 1092.14L776.92 1074.83L776.84 1005.57L746.84 1022.89Z" fill="white" stroke="#1A353C" stroke-width="4" stroke-miterlimit="10"/>
        <path d="M806.84 988.25L806.92 1057.5L836.92 1040.18L836.84 970.93L806.84 988.25Z" fill="white" stroke="#1A353C" stroke-width="4" stroke-miterlimit="10"/>
        <path d="M866.84 953.61L866.92 1022.86L896.92 1005.54L896.84 936.29L866.84 953.61Z" fill="white" stroke="#1A353C" stroke-width="4" stroke-miterlimit="10"/>
        <path d="M1046.92 399.32V433.97L1076.92 451.29" fill="white"/>
        <path d="M1046.92 399.32V433.97L1076.92 451.29" stroke="#001B22" stroke-width="4" stroke-miterlimit="10"/>
        <path d="M1046.99 468.38V503.03L1076.99 520.35" fill="white"/>
        <path d="M1046.99 468.38V503.03L1076.99 520.35" stroke="#001B22" stroke-width="4" stroke-miterlimit="10"/>
        <path d="M1046.68 537.69V572.33L1076.68 589.65" fill="white"/>
        <path d="M1046.68 537.69V572.33L1076.68 589.65" stroke="#001B22" stroke-width="4" stroke-miterlimit="10"/>
        <path d="M1107.12 434.63V469.27L1137.12 486.59" fill="white"/>
        <path d="M1107.12 434.63V469.27L1137.12 486.59" stroke="#001B22" stroke-width="4" stroke-miterlimit="10"/>
        <path d="M1107.19 503.68V538.33L1137.19 555.65" fill="white"/>
        <path d="M1107.19 503.68V538.33L1137.19 555.65" stroke="#001B22" stroke-width="4" stroke-miterlimit="10"/>
        <path d="M1106.89 572.99V607.63L1136.89 624.95" fill="white"/>
        <path d="M1106.89 572.99V607.63L1136.89 624.95" stroke="#001B22" stroke-width="4" stroke-miterlimit="10"/>
        <path d="M1166.98 468.45V503.09L1196.98 520.41" fill="white"/>
        <path d="M1166.98 468.45V503.09L1196.98 520.41" stroke="#001B22" stroke-width="4" stroke-miterlimit="10"/>
        <path d="M1167.05 537.51V572.15L1197.05 589.47" fill="white"/>
        <path d="M1167.05 537.51V572.15L1197.05 589.47" stroke="#001B22" stroke-width="4" stroke-miterlimit="10"/>
        <path d="M1166.74 606.82V641.46L1196.74 658.78" fill="white"/>
        <path d="M1166.74 606.82V641.46L1196.74 658.78" stroke="#001B22" stroke-width="4" stroke-miterlimit="10"/>
        <path d="M1308.54 350.23L1307.97 350.56L1307.65 350.38L1309.2 349.49L1309.52 349.67L1308.95 350L1310.54 350.92L1310.14 351.15L1308.54 350.23ZM1311.72 348.5L1312.66 349.7L1312.4 349.86L1310.32 349.31L1311.84 350.19L1311.46 350.41L1309.54 349.3L1310.1 348.98L1311.98 349.46L1311.15 348.37L1311.7 348.05L1313.62 349.16L1313.25 349.37L1311.74 348.5H1311.72Z" fill="#334B51"/>
        <path d="M1217.87 357.35C1217.87 357.35 1216.18 361 1223.81 357.49C1233.05 353.25 1237.16 350.72 1244.59 344.44C1247.47 344.021 1250.33 343.45 1253.15 342.73C1241.38 359.61 1206.23 369.23 1217.87 357.35Z" fill="#334B51"/>
        <path d="M1204 352.22C1204 352.22 1202.81 356.72 1210.37 353.17C1220.15 348.57 1227.22 344.57 1237.02 336.24C1239.36 336.184 1241.68 335.849 1243.94 335.24C1226.36 353.71 1192.11 365.82 1204 352.24" fill="#334B51"/>
        <path d="M1205.76 328.86C1216.59 329.28 1215.41 335.97 1215.41 335.97C1215.41 335.97 1221.66 324.76 1207.53 323.41C1194.34 322.15 1186.3 322.41 1195.98 301.59C1195.98 301.59 1168.98 327.43 1205.76 328.86Z" fill="#334B51"/>
        <path d="M1272 335.81C1272 335.81 1277.38 335.5 1273 340.18C1264.72 349.07 1228.37 371.3 1213.48 374.71C1208.12 375.93 1212.89 370.59 1214.63 369.04C1215.6 368.142 1216.68 367.367 1217.84 366.73C1210.77 367.45 1196.68 385.54 1214.48 378.11C1263.03 357.86 1287.66 332.36 1271.96 335.81" fill="#334B51"/>
        <path d="M1196.59 342.84C1196.59 342.84 1182.05 356.43 1195.97 350.27C1201.86 347.67 1212.05 341.61 1220.89 335.58C1228.1 330.65 1234.61 325.27 1234.61 325.27C1233.7 326.589 1232.95 328.008 1232.37 329.5C1218.09 343.58 1178.37 363.79 1183.98 354.6C1187.14 349.69 1191.47 345.647 1196.59 342.84" fill="#334B51"/>
        <path d="M1249.71 334.08C1259.21 316.87 1240.38 316.49 1235.35 320.91C1234.75 321.402 1234.2 321.951 1233.7 322.55C1233.61 322.255 1233.61 321.944 1233.67 321.644C1233.74 321.345 1233.89 321.068 1234.09 320.84C1242.26 311.07 1269.22 315.49 1249.83 334.6C1249.85 334.418 1249.8 334.236 1249.71 334.08" fill="#334B51"/>
        <path d="M1161.6 296.89C1161.6 296.89 1183.3 296.89 1178.73 318.7C1175.07 336.22 1195.81 333.04 1208.37 335.82C1189.55 336.41 1174.43 336.1 1172.02 329.06C1168.49 318.74 1183.17 304.27 1161.6 296.89" fill="#334B51"/>
        <path d="M1245 368.56C1265.06 358.36 1292.16 340.56 1284 335.04C1284 335.04 1286 337.74 1274.44 347.52C1261.35 358.52 1241.14 369.82 1227.44 375.52C1227.44 375.52 1231.83 375.27 1245.02 368.57" fill="#334B51"/>
        <path d="M1275.79 389.91C1275.68 390.84 1275.35 391.73 1274.83 392.507C1274.31 393.284 1273.61 393.926 1272.79 394.38C1271.66 395.048 1270.38 395.4 1269.07 395.4C1267.76 395.4 1266.48 395.048 1265.35 394.38C1262.86 392.95 1262.43 391.09 1268.02 387.86L1270.09 386.67L1275.74 389.93L1275.79 389.91ZM1286.16 390.27L1269.16 380.43C1264.81 377.92 1259.44 377.7 1253.41 381.18C1250.58 382.736 1248.14 384.922 1246.28 387.57L1250.02 388.9C1251.58 386.945 1253.5 385.297 1255.66 384.04C1259.13 382.04 1262.01 381.97 1264.88 383.63L1267.03 384.87L1265.3 385.87C1256.87 390.74 1256.3 394.82 1261.2 397.63C1265.41 400.07 1270.31 400 1275.03 397.28C1278.03 395.53 1279.09 393.5 1279.38 391.23L1282.38 392.5L1286.24 390.27H1286.16Z" fill="#334B51"/>
        <path d="M1302.59 380.79L1296.47 384.33L1265.26 374.82L1270.61 371.73L1289.83 377.55L1295.25 379.5C1291.08 374.354 1286.29 369.737 1281 365.75L1286.2 362.75C1292.66 368.09 1298.76 374.51 1302.62 380.75" fill="#334B51"/>
        <path d="M1320.58 364.05C1320.47 364.98 1320.14 365.871 1319.62 366.648C1319.1 367.425 1318.4 368.067 1317.58 368.52C1316.45 369.185 1315.17 369.536 1313.86 369.536C1312.55 369.536 1311.27 369.185 1310.14 368.52C1307.65 367.08 1307.23 365.22 1312.82 361.99L1314.89 360.8L1320.54 364.06L1320.58 364.05ZM1330.96 364.4L1313.96 354.56C1309.61 352.05 1304.23 351.84 1298.22 355.31C1295.38 356.863 1292.94 359.05 1291.08 361.7L1294.81 363.03C1296.38 361.078 1298.29 359.43 1300.46 358.17C1303.92 356.17 1306.81 356.1 1309.68 357.76L1311.83 359L1310.1 360C1301.66 364.87 1301.1 368.95 1306 371.77C1310.21 374.2 1315.11 374.14 1319.83 371.41C1322.83 369.66 1323.83 367.63 1324.18 365.41L1327.18 366.68L1331.04 364.45L1330.96 364.4Z" fill="#334B51"/>
        <path d="M1266 406.6C1266.63 408.6 1266 410.81 1264.41 412.77L1259.15 412.53C1259.59 411.827 1259.85 411.025 1259.9 410.198C1259.95 409.371 1259.8 408.543 1259.45 407.79C1258.81 406.67 1257.45 405.56 1253.45 403.27L1226.24 387.56L1231.46 384.56L1258.3 400.06C1263.59 403.11 1265.3 404.6 1265.99 406.61" fill="#334B51"/>
        <path d="M1286.92 711.09L1346.92 745.74L1376.92 728.41L1436.92 763.06L1526.92 711.09L1436.92 659.13L1406.92 641.81L1286.92 711.09Z" fill="#1A353C"/>
        <path d="M1946.92 364.68V156.84L2156.92 278.08L2156.45 486.13L1946.92 364.68Z" fill="#1A353C"/>
        <path d="M1946.92 364.68V399.32L2156.99 520.56L2156.45 486.13L1946.92 364.68Z" fill="#001B22"/>
        <path d="M2156.92 278.08L2366.45 157.04V364.89L2156.45 486.13L2156.92 278.08Z" fill="#334B51"/>
        <path d="M2156.99 520.56L2366.45 399.53V364.89L2156.45 486.13L2156.99 520.56Z" fill="#1A353C"/>
        <path d="M1947 156.84L2157 35.5898L2486.78 226.115L2367 295.5L2247 226.115L2157 278.08L1947 156.84Z" fill="#4D6267"/>
        <path d="M2066.45 260.97V295.61L2126.45 330.25V295.61L2066.45 260.97Z" fill="white"/>
        <path d="M2066.99 330.03V433.95L2126.99 468.6V364.67L2066.99 330.03Z" fill="white"/>
        <path d="M2066.45 260.97V295.61L2126.45 330.25" fill="white"/>
        <path d="M2066.45 260.97V295.61L2126.45 330.25" stroke="#001B22" stroke-width="4" stroke-miterlimit="10"/>
        <path d="M2066.99 330.03V433.95L2126.99 468.6" fill="white"/>
        <path d="M2066.99 330.03V433.95L2126.99 468.6" stroke="#001B22" stroke-width="4" stroke-miterlimit="10"/>
        <path d="M2246.92 433.95L2246.88 226.09L2366.88 295.35L2366.92 503.23L2246.92 433.95Z" fill="#1A353C"/>
        <path d="M2366.88 295.35L2486.88 226.07L2486.92 433.95L2366.92 503.23L2366.88 295.35Z" fill="#334B51"/>
        <path d="M2246.88 226.09L2366.88 156.81L2486.88 226.07L2366.88 295.35L2246.88 226.09Z" fill="#4D6267"/>
        <path d="M2246.92 433.95V468.59L2366.92 537.87V503.23L2246.92 433.95Z" fill="#001B22"/>
        <path d="M2366.92 537.87L2486.92 468.59V433.95L2366.92 503.23V537.87Z" fill="#1A353C"/>
        <path d="M2276.92 347.36V416.63L2336.92 451.27V382L2276.92 347.36Z" fill="white"/>
        <path d="M2276.92 347.36V416.63L2336.92 451.27" fill="white"/>
        <path d="M2276.92 347.36V416.63L2336.92 451.27" stroke="#001B22" stroke-width="4" stroke-miterlimit="10"/>
        <path d="M2276.54 277.96V312.6L2336.54 347.24V312.6L2276.54 277.96Z" fill="white"/>
        <path d="M2276.83 277.88V312.52L2336.83 347.16" fill="white"/>
        <path d="M2276.83 277.88V312.52L2336.83 347.16" stroke="#001B22" stroke-width="4" stroke-miterlimit="10"/>
        <path d="M2186.92 295.4V330.04L2216.92 312.72V278.08L2186.92 295.4Z" fill="white" stroke="#1A353C" stroke-width="4" stroke-miterlimit="10"/>
        <path d="M2186.92 364.68V433.97L2216.92 416.65V347.36L2186.92 364.68Z" fill="white" stroke="#1A353C" stroke-width="4" stroke-miterlimit="10"/>
        <path d="M1976.92 208.8V278.08L2036.92 312.72V243.44L1976.92 208.8Z" fill="white"/>
        <path d="M1976.92 312.72V347.36L2036.92 382V347.36L1976.92 312.72Z" fill="white"/>
        <path d="M1976.92 208.8V278.08L2036.92 312.72" fill="white"/>
        <path d="M1976.92 208.8V278.08L2036.92 312.72" stroke="#001B22" stroke-width="4" stroke-miterlimit="10"/>
        <path d="M1976.92 312.72V347.36L2036.92 382" fill="white"/>
        <path d="M1976.92 312.72V347.36L2036.92 382" stroke="#001B22" stroke-width="4" stroke-miterlimit="10"/>
        <path d="M2396.92 312.72V347.36L2456.92 312.72V278.08L2396.92 312.72Z" fill="white" stroke="#1A353C" stroke-width="4" stroke-miterlimit="10"/>
        <path d="M2396.92 382V451.29L2456.92 416.65V347.36L2396.92 382Z" fill="white" stroke="#1A353C" stroke-width="4" stroke-miterlimit="10"/>
        <path d="M2006.92 433.97L1946.92 468.61L1976.92 485.93L1946.92 503.25L2066.92 572.53L2126.92 537.89L2096.92 520.57L2126.92 503.25L2006.92 433.97Z" fill="#1A353C"/>
        <path d="M2096.92 589.85L2126.92 607.17L2156.92 589.85L2186.92 607.17L2216.92 589.85L2186.92 572.53L2216.92 555.21L2186.92 537.89L2216.92 520.57L2186.92 503.25L2156.99 520.56L2126.92 503.25L2096.92 520.57L2126.92 537.89L2066.92 572.53L2096.92 589.85Z" fill="#334B51"/>
        <path d="M1976.92 416.65L1870.7 477.97L1900.63 495.33L1916.92 485.93L1946.92 503.25L1976.92 485.93L1946.92 468.61L2006.92 433.97L1976.92 416.65Z" fill="#334B51"/>
        <path d="M1856.92 451.29L1886.92 433.97L1856.92 416.65L1886.92 399.32L1946.92 433.97L1886.92 468.61L1856.92 451.29Z" fill="#334B51"/>
        <path d="M1256.92 555.21V589.85L1406.92 503.25V468.61L1256.92 555.21Z" fill="white" stroke="#1A353C" stroke-width="4" stroke-miterlimit="10"/>
        <path d="M2095.87 120C2091.31 122.611 2086.96 125.58 2082.87 128.88C2072.52 137.4 2074.87 141.38 2083.36 146.29L2094.59 152.77L2124.25 135.65L2127.99 137.81L2098.34 154.93L2087.21 161.36C2078.59 166.36 2076.21 173.67 2083.62 180.68C2092.12 188.73 2099.01 192.85 2113.57 197.97C2124.4 201.79 2135.65 202.47 2144.27 197.49L2154.47 191.61L2141 183.78C2131.27 178.17 2131.16 168.32 2141.22 162.52L2170.84 145.42C2179.08 140.65 2178.92 132.96 2170.7 128.21L2142.67 112C2134.67 107.39 2121.91 107.84 2112.51 111.72C2106.78 114.085 2101.22 116.831 2095.86 119.94L2095.87 120ZM2088.87 134.48C2090.61 133.602 2092.52 133.145 2094.47 133.145C2096.42 133.145 2098.33 133.602 2100.07 134.48C2103.16 136.27 2103.17 139.16 2100.07 140.92C2098.34 141.8 2096.43 142.258 2094.49 142.258C2092.55 142.258 2090.64 141.8 2088.91 140.92C2085.82 139.1 2085.79 136.2 2088.86 134.43L2088.87 134.48Z" fill="#334B51"/>
        <path d="M2161.34 118.52L2174.43 126.08C2184.57 131.93 2184.43 141.86 2174.58 147.56L2145 164.66C2136.89 169.35 2137.07 177.21 2145.14 181.87L2173.2 198.07C2181.2 202.68 2192.88 201.36 2203 198.15C2215.14 194.31 2224.64 189.4 2232.62 181.05C2237.94 175.5 2240.99 168.75 2232.49 163.84L2221.25 157.36L2191.63 174.46L2187.89 172.3L2217.51 155.19L2232.34 146.63C2240.96 141.63 2238.2 136.35 2232.24 129.44C2226.1 122.33 2217.09 117.27 2202.29 112.15C2191.63 108.46 2181.15 107.15 2172.52 112.09L2161.39 118.52H2161.34ZM2215.75 169.17C2217.48 168.29 2219.39 167.832 2221.33 167.832C2223.27 167.832 2225.18 168.29 2226.91 169.17C2230.02 170.96 2230.05 173.86 2226.98 175.63C2225.24 176.51 2223.33 176.969 2221.38 176.969C2219.43 176.969 2217.52 176.51 2215.78 175.63C2212.69 173.83 2212.68 170.94 2215.75 169.17Z" fill="#334B51"/>
        <path d="M2156.92 797.7L2186.92 780.38L2216.92 797.7L2246.92 780.38L2276.92 797.7L2246.92 815.02L2306.92 849.66L2276.92 866.98L2156.92 797.7Z" fill="#1A353C"/>
        <path d="M2156.92 866.98L2126.92 884.3L2156.92 901.62L2126.92 918.94L2096.92 936.26L2126.92 953.58L2216.92 901.62L2156.92 866.98Z" fill="#1A353C"/>
        <path d="M2486.92 815.02L2516.92 797.7L2486.92 780.38L2516.87 763.11L2576.92 797.7L2516.92 832.34L2486.92 815.02Z" fill="#1A353C"/>
        <path d="M2666.92 815.02L2696.92 832.34L2726.92 815.02L2696.92 797.7L2666.92 815.02Z" fill="#1A353C"/>
        <path d="M1856.92 1317.31L1826.92 1334.63L1856.92 1351.95L1826.92 1369.27L1796.92 1386.59L1826.92 1403.91L1796.92 1421.23L1826.92 1438.56L1946.92 1369.27L1856.92 1317.31Z" fill="#334B51"/>
        <path d="M1886.92 1334.63L1916.92 1317.31L1886.92 1299.99L1916.92 1282.67L1946.92 1299.99L1976.92 1317.31L2006.92 1299.99L2036.92 1317.31L2006.92 1334.63L1976.92 1351.95L1946.92 1369.27L1886.92 1334.63Z" fill="#1A353C"/>
        <path d="M3266.92 1161.45V1369.29L3537.11 1525.07L3536.92 1317.33L3266.92 1161.45Z" fill="#1A353C"/>
        <path d="M3296.92 1455.89L3686.92 1230.73V1438.58L3297.12 1663.63L3296.92 1455.89Z" fill="#334B51"/>
        <path d="M3266.92 1161.45L3416.92 1074.85L3686.92 1230.73L3536.92 1317.33L3266.92 1161.45Z" fill="#4D6267"/>
        <path d="M3296.91 1213.39V1248.03L3356.91 1282.67V1248.03L3296.91 1213.39Z" fill="white"/>
        <path d="M3386.91 1265.35V1299.99L3416.91 1317.31V1282.67L3386.91 1265.35Z" fill="white"/>
        <path d="M3446.91 1299.99V1334.63L3506.91 1369.28V1334.63L3446.91 1299.99Z" fill="white"/>
        <path d="M3296.91 1282.67V1351.95L3326.91 1369.28V1299.99L3296.91 1282.67Z" fill="white"/>
        <path d="M3356.91 1317.31V1386.6L3446.91 1438.56V1403.92V1369.28L3356.91 1317.31Z" fill="white"/>
        <path d="M3476.91 1386.6V1455.88L3506.91 1473.2V1403.92L3476.91 1386.6Z" fill="white"/>
        <path d="M3296.91 1282.67V1351.95L3326.91 1369.28" fill="white"/>
        <path d="M3296.91 1282.67V1351.95L3326.91 1369.28" stroke="#001B22" stroke-width="4" stroke-miterlimit="10"/>
        <path d="M3356.91 1317.31V1386.6L3446.91 1438.56" fill="white"/>
        <path d="M3356.91 1317.31V1386.6L3446.91 1438.56" stroke="#001B22" stroke-width="4" stroke-miterlimit="10"/>
        <path d="M3296.91 1213.39V1248.03L3356.91 1282.67" fill="white"/>
        <path d="M3296.91 1213.39V1248.03L3356.91 1282.67" stroke="#001B22" stroke-width="4" stroke-miterlimit="10"/>
        <path d="M3386.91 1265.35V1299.99L3416.91 1317.31" fill="white"/>
        <path d="M3386.91 1265.35V1299.99L3416.91 1317.31" stroke="#001B22" stroke-width="4" stroke-miterlimit="10"/>
        <path d="M3446.91 1299.99V1334.63L3506.91 1369.28" fill="white"/>
        <path d="M3446.91 1299.99V1334.63L3506.91 1369.28" stroke="#001B22" stroke-width="4" stroke-miterlimit="10"/>
        <path d="M3476.91 1386.6V1455.88L3506.91 1473.2" fill="white"/>
        <path d="M3476.91 1386.6V1455.88L3506.91 1473.2" stroke="#001B22" stroke-width="4" stroke-miterlimit="10"/>
        <path d="M3266.92 1369.29L3266.91 1403.92L3536.91 1559.8L3537.11 1525.07L3266.92 1369.29Z" fill="#001B22"/>
        <path d="M3296.92 1698.36L3686.91 1473.2L3686.92 1438.58L3297.12 1663.63L3296.92 1698.36Z" fill="#1A353C"/>
        <path d="M3267.37 1404.04L3146.91 1473.2L3536.91 1559.8L3267.37 1404.04Z" fill="url(#paint18_linear_2:435)"/>
        <path d="M3026.92 1300.01V1507.86L3297.12 1663.63L3296.92 1455.89L3026.92 1300.01Z" fill="#1A353C"/>
        <path d="M3296.92 1453.39L3687 1232V1438.5L3297.12 1661.13L3296.92 1453.39Z" fill="#334B51"/>
        <path d="M3026.92 1300.01L3176.92 1213.41L3327.5 1299.5L3417 1248L3267.5 1162L3417 1075L3687 1230.5L3296.92 1455.89L3026.92 1300.01Z" fill="#4D6267"/>
        <path d="M3056.92 1351.95V1386.59L3116.92 1421.23V1386.59L3056.92 1351.95Z" fill="white"/>
        <path d="M3146.92 1403.91V1438.56L3176.92 1455.88V1421.23L3146.92 1403.91Z" fill="white"/>
        <path d="M3206.92 1438.56V1473.2L3266.92 1507.84V1473.2L3206.92 1438.56Z" fill="white"/>
        <path d="M3056.92 1421.23V1490.52L3086.92 1507.84V1438.56L3056.92 1421.23Z" fill="white"/>
        <path d="M3116.92 1455.88V1525.16L3206.92 1577.12V1542.48V1507.84L3116.92 1455.88Z" fill="white"/>
        <path d="M3236.92 1525.16V1594.44L3266.92 1611.76V1542.48L3236.92 1525.16Z" fill="white"/>
        <path d="M3056.92 1421.23V1490.52L3086.92 1507.84" fill="white"/>
        <path d="M3056.92 1421.23V1490.52L3086.92 1507.84" stroke="#001B22" stroke-width="4" stroke-miterlimit="10"/>
        <path d="M3116.92 1455.88V1525.16L3206.92 1577.12" fill="white"/>
        <path d="M3116.92 1455.88V1525.16L3206.92 1577.12" stroke="#001B22" stroke-width="4" stroke-miterlimit="10"/>
        <path d="M3056.92 1351.95V1386.59L3116.92 1421.23" fill="white"/>
        <path d="M3056.92 1351.95V1386.59L3116.92 1421.23" stroke="#001B22" stroke-width="4" stroke-miterlimit="10"/>
        <path d="M3146.92 1403.91V1438.56L3176.92 1455.88" fill="white"/>
        <path d="M3146.92 1403.91V1438.56L3176.92 1455.88" stroke="#001B22" stroke-width="4" stroke-miterlimit="10"/>
        <path d="M3206.92 1438.56V1473.2L3266.92 1507.84" fill="white"/>
        <path d="M3206.92 1438.56V1473.2L3266.92 1507.84" stroke="#001B22" stroke-width="4" stroke-miterlimit="10"/>
        <path d="M3236.92 1525.16V1594.44L3266.92 1611.76" fill="white"/>
        <path d="M3236.92 1525.16V1594.44L3266.92 1611.76" stroke="#001B22" stroke-width="4" stroke-miterlimit="10"/>
        <path d="M3326.92 1473.2V1507.84L3416.92 1455.88V1421.23L3326.92 1473.2Z" fill="white" stroke="#001B22" stroke-width="4" stroke-miterlimit="10"/>
        <path d="M3326.92 1542.48V1611.76L3356.92 1594.44V1525.16L3326.92 1542.48Z" fill="white" stroke="#001B22" stroke-width="4" stroke-miterlimit="10"/>
        <path d="M3386.92 1507.84L3416.92 1490.52V1559.8L3386.92 1577.12V1507.84Z" fill="white" stroke="#001B22" stroke-width="4" stroke-miterlimit="10"/>
        <path d="M3026.92 1507.86V1542.48L3296.92 1698.36L3297.12 1663.63L3026.92 1507.86Z" fill="#001B22"/>
        <path d="M3296.92 1698.36L3446.92 1611.76V1577.14L3297.12 1663.63L3296.92 1698.36Z" fill="#1A353C"/>
        <path d="M3027.38 1542.6L2906.92 1611.76L3296.92 1698.36L3027.38 1542.6Z" fill="url(#paint19_linear_2:435)"/>
        <path d="M1946.88 399.3L1856.88 451.37L2156.99 520.56L1946.88 399.3Z" fill="url(#paint20_linear_2:435)"/>
        <path d="M2846.92 1473.2L2996.92 1386.59L3026.92 1403.91L3027.38 1542.6L2966.92 1577.12L2936.92 1594.44L2876.92 1629.08L2786.92 1577.12L2906.92 1507.84L2846.92 1473.2Z" fill="#334B51"/>
        <path d="M2486.92 1473.2L2546.92 1507.84L2576.92 1490.52L2666.92 1542.48L2726.92 1507.84L2756.92 1525.16L2816.92 1490.52L2846.92 1507.84L2966.92 1438.56L2996.92 1455.88L3026.92 1438.56V1507.86L2996.92 1525.16L2966.92 1542.48L2936.92 1525.16L2846.92 1577.12L2816.92 1559.8L2756.92 1594.44L2696.92 1559.8L2606.92 1611.76L2426.92 1507.84L2486.92 1473.2Z" fill="#1A353C"/>
        <path d="M3446.92 1369.29L3536.92 1317.33L3537.11 1525.07L3446.92 1577.14V1369.29Z" fill="#334B51"/>
        <path d="M3446.92 1577.14L3537.11 1525.07L3536.91 1559.8L3446.92 1611.76V1577.14Z" fill="#1A353C"/>
        <path d="M3326.91 1299.99L3416.92 1248.03L3536.92 1317.33L3446.92 1369.29L3326.91 1299.99Z" fill="#4D6267"/>
        <path d="M3446.91 1403.92V1438.56L3536.92 1386.59V1351.95L3446.91 1403.92Z" fill="white" stroke="#001B22" stroke-width="4" stroke-miterlimit="10"/>
        <path d="M3446.92 1473.2V1542.48L3476.92 1525.16L3476.91 1455.88L3446.92 1473.2Z" fill="white" stroke="#001B22" stroke-width="4" stroke-miterlimit="10"/>
        <path d="M3506.92 1438.56V1507.84L3536.92 1490.52V1421.23L3506.92 1438.56Z" fill="white" stroke="#001B22" stroke-width="4" stroke-miterlimit="10"/>
        <path d="M3176.92 1074.83L3236.92 1109.47L3146.92 1161.43L3176.92 1178.75L3146.92 1196.07L3176.92 1213.41L3266.92 1265.35V1161.45L3416.92 1074.85L3356.92 1040.18L3326.92 1057.5L3266.92 1022.86L3176.92 1074.83Z" fill="#334B51"/>
        <path d="M2906.92 1438.56L2876.92 1421.23L2936.92 1386.59L2906.92 1369.27L2966.92 1334.63L2936.92 1317.31L2996.92 1282.67L3146.92 1196.07L3176.92 1178.75L3206.92 1196.07L3236.92 1213.39L3206.92 1230.71L3176.92 1213.41L3056.92 1282.67L3026.92 1300.01V1403.91L2996.92 1386.59L2906.92 1438.56Z" fill="#1A353C"/>
        <path d="M3357.92 1088.75C3381.12 1088.75 3399.92 1081.81 3399.92 1073.25C3399.92 1064.69 3381.12 1057.75 3357.92 1057.75C3334.72 1057.75 3315.92 1064.69 3315.92 1073.25C3315.92 1081.81 3334.72 1088.75 3357.92 1088.75Z" fill="url(#paint21_linear_2:435)"/>
        <path d="M3357.25 1027.95V1074.5L3368.94 1069.82V1009.43L3357.25 1004.75V1027.95Z" fill="#001B22"/>
        <path d="M3357.63 1028.2V1074.75L3345.94 1070.08V1009.68L3357.63 1005V1028.2Z" fill="#001B22"/>
        <path d="M3327.43 883.52L3297.83 1005L3357.63 1039.52L3357.83 901.08L3327.43 883.52Z" fill="#006836"/>
        <path d="M3387.83 883.76L3357.83 901.08L3357.63 1039.52L3417.83 1005L3387.83 883.76Z" fill="#2E9960"/>
        <path d="M3357.83 866.43L3327.43 883.52L3357.83 901.08L3387.83 883.76L3357.83 866.43Z" fill="#8ABC92"/>
        <path d="M3176.8 1186.78C3190.67 1186.78 3201.92 1182.63 3201.92 1177.51C3201.92 1172.39 3190.67 1168.24 3176.8 1168.24C3162.93 1168.24 3151.68 1172.39 3151.68 1177.51C3151.68 1182.63 3162.93 1186.78 3176.8 1186.78Z" fill="url(#paint22_linear_2:435)"/>
        <path d="M3176.4 1150.41V1178.25L3183.39 1175.46V1139.33L3176.4 1136.54V1150.41Z" fill="#001B22"/>
        <path d="M3176.63 1150.56V1178.41L3169.63 1175.61V1139.48L3176.63 1136.69V1150.56Z" fill="#001B22"/>
        <path d="M3158.56 1064.02L3140.86 1136.68L3176.63 1157.34L3176.75 1074.52L3158.56 1064.02Z" fill="#006836"/>
        <path d="M3194.69 1064.16L3176.75 1074.52L3176.63 1157.34L3212.64 1136.68L3194.69 1064.16Z" fill="#2E9960"/>
        <path d="M3176.75 1053.8L3158.56 1064.02L3176.75 1074.52L3194.69 1064.16L3176.75 1053.8Z" fill="#8ABC92"/>
        <path d="M3596.92 1005.54V1109.47L3716.92 1040.18V936.26L3596.92 1005.54Z" fill="#E6E6E6"/>
        <path d="M3596.92 1109.47L3506.92 1057.5V953.58L3596.92 1005.54V1109.47Z" fill="#CCCCCC"/>
        <path d="M3506.92 953.58L3626.92 884.3L3716.92 936.26L3596.92 1005.54L3506.92 953.58Z" fill="#F2F2F2"/>
        <path d="M3387.02 1057.57L3417.02 1040.25L3447.02 1057.57L3506.92 1022.86V1057.5L3597.02 1109.54L3627.02 1092.21L3687.02 1126.86L3627.02 1161.5L3597.02 1144.18L3567.02 1161.5L3387.02 1057.57Z" fill="#334B51"/>
        <path d="M3656.92 1109.47L3776.92 1040.18L3716.92 1005.54V1040.18L3626.92 1092.14L3656.92 1109.47Z" fill="#334B51"/>
        <path d="M3407.63 1341.11L3381.09 1330.8L3380.52 1331.13L3398.38 1346.45L3388.78 1352L3345.68 1335.25L3353.37 1330.81L3384 1343.57L3384.5 1343.28L3363.25 1325.1L3370.87 1320.71L3402.43 1332.93L3402.92 1332.65L3380.75 1315L3388.08 1310.77L3417.16 1335.61L3407.63 1341.11ZM3452.5 1315.2L3426 1304.89L3425.43 1305.22L3443.29 1320.54L3433.68 1326.09L3390.59 1309.34L3398.27 1304.9L3428.91 1317.66L3429.41 1317.38L3408.16 1299.2L3415.77 1294.8L3447.3 1307L3447.8 1306.71L3425.63 1289.06L3432.96 1284.83L3462 1309.7L3452.5 1315.2ZM3497.38 1289.3L3470.84 1279L3470.28 1279.32L3488.13 1294.64L3478.53 1300.19L3435.44 1283.44L3443.12 1279L3473.75 1291.76L3474.25 1291.48L3453 1273.29L3460.61 1268.89L3492.17 1281.12L3492.66 1280.83L3470.49 1263.18L3477.82 1258.95L3506.9 1283.79L3497.38 1289.3Z" fill="#334B51"/>
        <path d="M896.92 1975.49L-33.0801 1438.56V1854.25L896.92 2391.18V1975.49Z" fill="#1A353C"/>
        <path d="M-1.55005 1664.61L875.95 2171.23" stroke="white" stroke-width="4" stroke-miterlimit="10" stroke-dasharray="24.42 24.42"/>
        <path d="M886.53 2177.34L896.92 2183.34" stroke="white" stroke-width="4" stroke-miterlimit="10"/>
        <path d="M2246.91 468.62L2157.01 520.43L2366.92 537.87L2246.91 468.62Z" fill="url(#paint23_linear_2:435)"/>
        <path d="M3549.15 977.96V1081.78" stroke="#B3B3B3" stroke-width="4" stroke-miterlimit="10"/>
        <path d="M3506.92 1057.5L3446.92 1092.14L3597.1 1109.14" fill="url(#paint24_linear_2:435)"/>
        <path d="M1741.94 1415.16C1755.81 1415.16 1767.06 1411.01 1767.06 1405.89C1767.06 1400.77 1755.81 1396.62 1741.94 1396.62C1728.07 1396.62 1716.82 1400.77 1716.82 1405.89C1716.82 1411.01 1728.07 1415.16 1741.94 1415.16Z" fill="url(#paint25_linear_2:435)"/>
        <path d="M1741.54 1378.79V1406.64L1748.53 1403.84V1367.71L1741.54 1364.92V1378.79Z" fill="#001B22"/>
        <path d="M1741.77 1378.95V1406.79L1734.77 1403.99V1367.87L1741.77 1365.07V1378.95Z" fill="#001B22"/>
        <path d="M1723.7 1292.4L1706 1365.07L1741.77 1385.72L1741.89 1302.9L1723.7 1292.4Z" fill="#006836"/>
        <path d="M1759.83 1292.54L1741.89 1302.9L1741.77 1385.72L1777.78 1365.07L1759.83 1292.54Z" fill="#2E9960"/>
        <path d="M1741.89 1282.18L1723.7 1292.4L1741.89 1302.9L1759.83 1292.54L1741.89 1282.18Z" fill="#8ABC92"/>
        <path d="M1849.77 1411.32C1872.97 1411.32 1891.77 1404.38 1891.77 1395.82C1891.77 1387.26 1872.97 1380.32 1849.77 1380.32C1826.57 1380.32 1807.77 1387.26 1807.77 1395.82C1807.77 1404.38 1826.57 1411.32 1849.77 1411.32Z" fill="url(#paint26_linear_2:435)"/>
        <path d="M1849.11 1350.52V1397.07L1860.8 1392.39V1331.99L1849.11 1327.32V1350.52Z" fill="#001B22"/>
        <path d="M1849.49 1350.77V1397.32L1837.8 1392.65V1332.25L1849.49 1327.57V1350.77Z" fill="#001B22"/>
        <path d="M1819.29 1206.09L1789.69 1327.57L1849.49 1362.09L1849.69 1223.65L1819.29 1206.09Z" fill="#006836"/>
        <path d="M1879.69 1206.33L1849.69 1223.65L1849.49 1362.09L1909.69 1327.57L1879.69 1206.33Z" fill="#2E9960"/>
        <path d="M1849.69 1189L1819.29 1206.09L1849.69 1223.65L1879.69 1206.33L1849.69 1189Z" fill="#8ABC92"/>
        <path d="M1527.08 633.31C1550.28 633.31 1569.08 626.37 1569.08 617.81C1569.08 609.25 1550.28 602.31 1527.08 602.31C1503.88 602.31 1485.08 609.25 1485.08 617.81C1485.08 626.37 1503.88 633.31 1527.08 633.31Z" fill="url(#paint27_linear_2:435)"/>
        <path d="M1526.42 572.51V619.06L1538.11 614.38V553.99L1526.42 549.31V572.51Z" fill="#001B22"/>
        <path d="M1526.8 572.76V619.31L1515.11 614.64V554.24L1526.8 549.56V572.76Z" fill="#001B22"/>
        <path d="M1496.6 428.08L1467 549.56L1526.8 584.08L1527 445.64L1496.6 428.08Z" fill="#006836"/>
        <path d="M1557 428.32L1527 445.64L1526.8 584.08L1587 549.56L1557 428.32Z" fill="#2E9960"/>
        <path d="M1527 411L1496.6 428.08L1527 445.64L1557 428.32L1527 411Z" fill="#8ABC92"/>
        <path d="M3566.91 1334.63V1369.28L3656.91 1317.31V1282.67L3566.91 1334.63Z" fill="white" stroke="#001B22" stroke-width="4" stroke-miterlimit="10"/>
        <path d="M3566.91 1403.92V1473.2L3596.91 1455.88V1386.6L3566.91 1403.92Z" fill="white" stroke="#001B22" stroke-width="4" stroke-miterlimit="10"/>
        <path d="M3626.91 1369.28L3656.91 1351.95V1421.24L3626.91 1438.56V1369.28Z" fill="white" stroke="#001B22" stroke-width="4" stroke-miterlimit="10"/>
    </g>
    <defs>
        <linearGradient id="paint0_linear_2:435" x1="1151.92" y1="1230.71" x2="1151.92" y2="1351.95" gradientUnits="userSpaceOnUse">
            <stop stop-color="#1A353C"/>
            <stop offset="1" stop-color="#1A353C" stop-opacity="0"/>
        </linearGradient>
        <linearGradient id="paint1_linear_2:435" x1="526229" y1="163675" x2="537096" y2="134070" gradientUnits="userSpaceOnUse">
            <stop stop-color="#808080" stop-opacity="0"/>
            <stop offset="1" stop-color="#333333"/>
        </linearGradient>
        <linearGradient id="paint2_linear_2:435" x1="163724" y1="23036.6" x2="164579" y2="20701.5" gradientUnits="userSpaceOnUse">
            <stop stop-color="#808080" stop-opacity="0"/>
            <stop offset="1" stop-color="#333333"/>
        </linearGradient>
        <linearGradient id="paint3_linear_2:435" x1="81572" y1="29913.2" x2="84096.6" y2="29913.2" gradientUnits="userSpaceOnUse">
            <stop stop-color="#808080" stop-opacity="0"/>
            <stop offset="1" stop-color="#808080"/>
        </linearGradient>
        <linearGradient id="paint4_linear_2:435" x1="77802" y1="46637.2" x2="84858" y2="46637.2" gradientUnits="userSpaceOnUse">
            <stop stop-color="#808080" stop-opacity="0"/>
            <stop offset="1" stop-color="#808080"/>
        </linearGradient>
        <linearGradient id="paint5_linear_2:435" x1="85065.9" y1="34595" x2="92121.9" y2="34595" gradientUnits="userSpaceOnUse">
            <stop stop-color="#808080" stop-opacity="0"/>
            <stop offset="1" stop-color="#808080"/>
        </linearGradient>
        <linearGradient id="paint6_linear_2:435" x1="32397" y1="33164.2" x2="34921.6" y2="33164.2" gradientUnits="userSpaceOnUse">
            <stop stop-color="#808080" stop-opacity="0"/>
            <stop offset="1" stop-color="#808080"/>
        </linearGradient>
        <linearGradient id="paint7_linear_2:435" x1="133924" y1="18335.4" x2="136448" y2="18335.4" gradientUnits="userSpaceOnUse">
            <stop stop-color="#808080" stop-opacity="0"/>
            <stop offset="1" stop-color="#808080"/>
        </linearGradient>
        <linearGradient id="paint8_linear_2:435" x1="1839.93" y1="1854.67" x2="1839.93" y2="1889.18" gradientUnits="userSpaceOnUse">
            <stop stop-color="#1A353C"/>
            <stop offset="1" stop-color="#1A353C" stop-opacity="0"/>
        </linearGradient>
        <linearGradient id="paint9_linear_2:435" x1="2351.92" y1="1681.2" x2="2351.92" y2="1784.97" gradientUnits="userSpaceOnUse">
            <stop stop-color="#1A353C"/>
            <stop offset="1" stop-color="#1A353C" stop-opacity="0"/>
        </linearGradient>
        <linearGradient id="paint10_linear_2:435" x1="2591.96" y1="1733.36" x2="2591.96" y2="1785.4" gradientUnits="userSpaceOnUse">
            <stop stop-color="#1A353C"/>
            <stop offset="1" stop-color="#1A353C" stop-opacity="0"/>
        </linearGradient>
        <linearGradient id="paint11_linear_2:435" x1="138458" y1="36222.3" x2="140982" y2="36222.3" gradientUnits="userSpaceOnUse">
            <stop stop-color="#808080" stop-opacity="0"/>
            <stop offset="1" stop-color="#808080"/>
        </linearGradient>
        <linearGradient id="paint12_linear_2:435" x1="230717" y1="47026.1" x2="237773" y2="47026.1" gradientUnits="userSpaceOnUse">
            <stop stop-color="#808080" stop-opacity="0"/>
            <stop offset="1" stop-color="#808080"/>
        </linearGradient>
        <linearGradient id="paint13_linear_2:435" x1="2651.87" y1="711.3" x2="2651.87" y2="815.07" gradientUnits="userSpaceOnUse">
            <stop stop-color="#1A353C"/>
            <stop offset="1" stop-color="#1A353C" stop-opacity="0"/>
        </linearGradient>
        <linearGradient id="paint14_linear_2:435" x1="296.955" y1="1473.11" x2="296.955" y2="1542.39" gradientUnits="userSpaceOnUse">
            <stop stop-color="#1A353C"/>
            <stop offset="1" stop-color="#1A353C" stop-opacity="0"/>
        </linearGradient>
        <linearGradient id="paint15_linear_2:435" x1="476.955" y1="1507.84" x2="476.955" y2="1577.13" gradientUnits="userSpaceOnUse">
            <stop stop-color="#1A353C"/>
            <stop offset="1" stop-color="#1A353C" stop-opacity="0"/>
        </linearGradient>
        <linearGradient id="paint16_linear_2:435" x1="626.92" y1="1109.47" x2="626.92" y2="1178.75" gradientUnits="userSpaceOnUse">
            <stop stop-color="#1A353C"/>
            <stop offset="1" stop-color="#1A353C" stop-opacity="0"/>
        </linearGradient>
        <linearGradient id="paint17_linear_2:435" x1="1076.88" y1="624.32" x2="1076.88" y2="745.67" gradientUnits="userSpaceOnUse">
            <stop stop-color="#1A353C"/>
            <stop offset="1" stop-color="#1A353C" stop-opacity="0"/>
        </linearGradient>
        <linearGradient id="paint18_linear_2:435" x1="1.27691e+06" y1="249428" x2="1.29319e+06" y2="208672" gradientUnits="userSpaceOnUse">
            <stop stop-color="#808080" stop-opacity="0"/>
            <stop offset="1" stop-color="#333333"/>
        </linearGradient>
        <linearGradient id="paint19_linear_2:435" x1="3101.92" y1="1542.6" x2="3101.92" y2="1698.36" gradientUnits="userSpaceOnUse">
            <stop stop-color="#1A353C"/>
            <stop offset="1" stop-color="#1A353C" stop-opacity="0"/>
        </linearGradient>
        <linearGradient id="paint20_linear_2:435" x1="2006.93" y1="399.3" x2="2006.93" y2="520.56" gradientUnits="userSpaceOnUse">
            <stop stop-color="#1A353C"/>
            <stop offset="1" stop-color="#1A353C" stop-opacity="0"/>
        </linearGradient>
        <linearGradient id="paint21_linear_2:435" x1="281853" y1="34328.5" x2="288909" y2="34328.5" gradientUnits="userSpaceOnUse">
            <stop stop-color="#808080" stop-opacity="0"/>
            <stop offset="1" stop-color="#808080"/>
        </linearGradient>
        <linearGradient id="paint22_linear_2:435" x1="161492" y1="22999.3" x2="164016" y2="22999.3" gradientUnits="userSpaceOnUse">
            <stop stop-color="#808080" stop-opacity="0"/>
            <stop offset="1" stop-color="#808080"/>
        </linearGradient>
        <linearGradient id="paint23_linear_2:435" x1="2261.96" y1="468.62" x2="2261.96" y2="537.87" gradientUnits="userSpaceOnUse">
            <stop stop-color="#1A353C"/>
            <stop offset="1" stop-color="#1A353C" stop-opacity="0"/>
        </linearGradient>
        <linearGradient id="paint24_linear_2:435" x1="3522.01" y1="1057.5" x2="3522.01" y2="1109.14" gradientUnits="userSpaceOnUse">
            <stop stop-color="#1A353C"/>
            <stop offset="1" stop-color="#1A353C" stop-opacity="0"/>
        </linearGradient>
        <linearGradient id="paint25_linear_2:435" x1="1716.81" y1="1405.89" x2="1767.06" y2="1405.89" gradientUnits="userSpaceOnUse">
            <stop stop-color="#808080" stop-opacity="0"/>
            <stop offset="1" stop-color="#808080"/>
        </linearGradient>
        <linearGradient id="paint26_linear_2:435" x1="143180" y1="41974.8" x2="150236" y2="41974.8" gradientUnits="userSpaceOnUse">
            <stop stop-color="#808080" stop-opacity="0"/>
            <stop offset="1" stop-color="#808080"/>
        </linearGradient>
        <linearGradient id="paint27_linear_2:435" x1="201910" y1="24810.8" x2="208966" y2="24810.8" gradientUnits="userSpaceOnUse">
            <stop stop-color="#808080" stop-opacity="0"/>
            <stop offset="1" stop-color="#808080"/>
        </linearGradient>
        <clipPath id="clip0_2:435">
            <rect width="4000" height="2422.88" fill="white"/>
        </clipPath>
    </defs>
</svg>
